<?xml version="1.0" encoding="UTF-8" standalone="no"?>
<svg
   version="1.1"
   id="Layer_1"
   x="0px"
   y="0px"
   width="100%"
   viewBox="0 0 411 413"
   enable-background="new 0 0 411 413"
   xml:space="preserve"
   sodipodi:docname="ski_snow.svg"
   inkscape:version="1.4.2 (ebf0e940d0, 2025-05-08)"
   xmlns:inkscape="http://www.inkscape.org/namespaces/inkscape"
   xmlns:sodipodi="http://sodipodi.sourceforge.net/DTD/sodipodi-0.dtd"
   xmlns="http://www.w3.org/2000/svg"
   xmlns:svg="http://www.w3.org/2000/svg"><defs
   id="defs6" /><sodipodi:namedview
   id="namedview6"
   pagecolor="#ffffff"
   bordercolor="#000000"
   borderopacity="0.25"
   inkscape:showpageshadow="2"
   inkscape:pageopacity="0.0"
   inkscape:pagecheckerboard="0"
   inkscape:deskcolor="#d1d1d1"
   inkscape:zoom="19.544794"
   inkscape:cx="328.0669"
   inkscape:cy="69.507"
   inkscape:window-width="2991"
   inkscape:window-height="1218"
   inkscape:window-x="0"
   inkscape:window-y="0"
   inkscape:window-maximized="1"
   inkscape:current-layer="Layer_1" />
<path
   fill="none"
   opacity="1.000000"
   stroke="#000000"
   stroke-linecap="round"
   stroke-linejoin="round"
   stroke-width="4.000000"
   d=" M173.000000,241.500000   C173.545349,242.618668 173.636826,243.482849 172.530991,244.532639   C160.647873,255.813538 148.829224,267.162384 137.001144,278.501190   C124.662727,290.329224 112.409401,302.247253 99.980301,313.979126   C85.230774,327.901245 70.330597,341.663727 55.505081,355.505432   C54.299824,356.630768 53.012856,357.716827 52.025906,359.019623   C47.048740,365.589569 47.316322,369.895569 53.009010,375.991577   C54.616753,377.713257 56.512344,379.191467 57.966499,381.026550   C62.362125,386.573700 66.464195,388.210236 74.400536,380.892120   C83.659813,372.354065 92.226196,363.057495 100.986443,353.986908   C115.152168,339.319305 128.951599,324.304718 143.460205,309.959747   C159.633759,293.968628 175.500000,277.666656 191.500000,261.500000  "
   id="path1" />
<path
   fill="none"
   opacity="1.000000"
   stroke="#000000"
   stroke-linecap="round"
   stroke-linejoin="round"
   stroke-width="4.000000"
   d=" M144.500000,215.500000   C128.500000,231.166656 112.007751,246.366943 96.617302,262.611145   C74.455513,286.002289 50.338882,307.335297 27.499441,329.999451   C24.835344,332.643097 22.548223,335.331390 22.408754,339.496948   C22.285351,343.182587 23.698307,345.987579 26.028191,348.473572   C27.717104,350.275604 29.963045,351.606140 31.446432,353.541077   C36.640102,360.315796 43.744175,358.012817 48.402561,353.401581   C59.373165,342.541931 69.911781,331.240326 80.482399,319.983490   C98.320183,300.987701 115.731873,281.593262 133.986923,262.987152   C143.727310,253.059494 153.333328,243.000000 163.000000,233.000000  "
   id="path2" />
<path
   fill="none"
   opacity="1.000000"
   stroke="#000000"
   stroke-linecap="round"
   stroke-linejoin="round"
   stroke-width="4.000000"
   d=" M270.000000,185.000015   C283.000000,173.000015 295.955292,160.951111 309.010742,149.011765   C327.468353,132.132080 346.200592,115.546432 364.410614,98.405029   C372.807281,90.501068 382.434143,83.700127 388.950317,73.966728   C397.832916,60.698521 391.323364,50.243591 380.432892,45.659420   C374.982788,43.365276 369.124786,45.031063 364.024994,48.042347   C360.754486,49.973492 357.571014,52.070404 354.953430,54.957783   C353.504578,56.555954 352.269012,58.803707 349.500000,58.500000  "
   id="path3" />
<path
   fill="none"
   opacity="1.000000"
   stroke="#000000"
   stroke-linecap="round"
   stroke-linejoin="round"
   stroke-width="4.000000"
   d=" M347.500000,56.500000   C347.156616,54.159119 349.218903,53.655045 350.482758,52.481415   C355.905029,47.446201 360.744751,41.829453 362.393311,34.476078   C364.026886,27.189560 360.857758,21.376677 354.994415,17.007475   C349.405090,12.842437 343.250916,12.167907 337.027435,15.059038   C328.765137,18.897280 322.530640,25.449692 316.547821,32.043388   C287.294556,64.283546 259.198761,97.578117 228.509796,128.509720   C226.268356,130.768875 223.990036,133.033249 222.080643,135.560928   C221.230789,136.685989 220.411423,136.361908 219.500000,136.500000  "
   id="path4" />
<path
   fill="none"
   opacity="1.000000"
   stroke="#000000"
   stroke-linecap="round"
   stroke-linejoin="round"
   stroke-width="4.000000"
   d=" M241.000000,155.500000   C275.931244,122.427208 310.862488,89.354416 345.580811,56.483212   C348.067749,56.448727 349.077820,57.631432 349.647156,59.832565   C317.296112,95.418251 284.876678,131.136185 251.000000,165.500000  "
   id="path5" />
<path
   fill="none"
   opacity="1.000000"
   stroke="#000000"
   stroke-linecap="round"
   stroke-linejoin="round"
   stroke-width="4.000000"
   d=" M66.500000,15.000000   C57.841061,16.659922 49.336399,18.837246 42.016380,24.023123   C29.110760,33.166130 23.497206,46.536095 21.039740,61.506523   C18.425264,77.433395 24.812241,90.513382 35.059338,101.946823   C43.488293,111.351608 54.055256,118.356880 64.047012,125.938042   C77.269035,135.970123 89.719742,146.853195 102.056610,157.936996   C132.244995,185.059113 161.045609,213.608612 189.430115,242.568497   C214.265045,267.906891 238.212585,294.116669 263.119324,319.382385   C275.879669,332.326660 288.275177,345.578308 300.437256,359.056610   C305.538025,364.709442 310.713623,370.045563 316.920197,374.608521   C334.983643,387.888458 358.107147,385.714508 373.908081,373.382233   C389.649078,361.096802 394.975616,343.746063 393.270996,324.520294   C392.432770,315.065979 387.410675,306.764130 381.034729,299.469635   C372.533691,289.743988 362.261963,282.107849 351.961121,274.553009   C335.026520,262.132812 320.010071,247.548294 304.469757,233.533524   C273.281342,205.406845 244.114609,175.219269 214.580292,145.420425   C189.855927,120.474655 165.573273,95.075996 141.611176,69.396255   C129.864578,56.807652 118.439583,43.867268 106.768730,31.213299   C96.467056,20.043854 82.853630,14.032587 67.000000,15.000000  "
   id="path6" />
<path
   style="fill:#000000;fill-opacity:0"
   d="m 349.68599,55.805766 c -0.0362,0.01206 -0.1206,0 -0.10854,0.03618 0.0121,0.03618 0.14471,-0.04824 0.10854,-0.03618 -0.0543,0.01809 -0.11054,0.03104 -0.16281,0.05427 -0.006,0.0024 0.004,0.01383 0,0.01809 -0.004,0.0043 -0.0138,-0.0043 -0.0181,0 -0.0236,0.02361 0.0157,0.09285 -0.0181,0.126625 -0.0222,0.02216 -0.0531,0.02539 -0.0724,0.05427 -0.0579,0.08683 -0.10448,0.183867 -0.1628,0.27134 -0.0418,0.06277 -0.11045,0.146633 -0.1628,0.198984 -0.0393,0.03931 -0.091,0.06583 -0.12663,0.108536 -0.0259,0.03107 -0.0335,0.07385 -0.0543,0.108536 -0.059,0.09831 -0.16398,0.117635 -0.23516,0.198984 -0.0231,0.02646 -0.0294,0.06559 -0.0543,0.09045 -0.11598,0.115983 -0.32601,0.220423 -0.45223,0.325609 -0.059,0.04913 -0.10545,0.111816 -0.16281,0.162804 -0.14009,0.124522 -0.30098,0.228623 -0.43414,0.361788 -0.10914,0.10914 -0.17488,0.273361 -0.30752,0.361788 -0.0833,0.05555 -0.18541,0.09316 -0.27134,0.144715 -0.0259,0.01551 -0.0465,0.03876 -0.0724,0.05427 -0.12473,0.07484 -0.50778,0.215795 -0.30752,0.416056 0.008,0.0076 0.25018,0.05427 0.27134,0.05427 0.0492,0 0.12064,-0.04277 0.1628,-0.05427 0.0354,-0.0097 0.0721,-0.01354 0.10854,-0.01809 0.012,-0.0015 0.0261,0.0067 0.0362,0 0.0284,-0.01892 0.0446,-0.05253 0.0724,-0.07236 0.0472,-0.03372 0.22272,-0.09804 0.28943,-0.126626 0.21719,-0.09308 0.51229,-0.196816 0.70548,-0.325609 0.0533,-0.03556 0.0955,-0.08559 0.14472,-0.126626 0.2075,-0.17292 0.38761,-0.35116 0.56077,-0.560771 0.0522,-0.06323 0.0905,-0.137486 0.14471,-0.198983 0.0368,-0.04169 0.0923,-0.06482 0.12663,-0.108536 0.0919,-0.116998 0.12163,-0.284437 0.23516,-0.397967 0.0333,-0.0333 0.0735,-0.05894 0.10854,-0.09045 0.0803,-0.07229 0.14532,-0.154872 0.23516,-0.217072 0.15341,-0.106204 0.31967,-0.167539 0.39797,-0.343699 0.057,-0.128171 0.0543,-0.06596 0.0543,-0.126626"
   id="path35" /><path
   style="fill:#000000;fill-opacity:0"
   d="m 349.56879,55.711766 c 0.0106,0.02118 -0.0503,0.03748 -0.0576,0.04477 -0.003,0.0034 -0.003,0.0094 -0.006,0.01279 -0.005,0.0048 -0.0139,0.0022 -0.0192,0.0064 -0.007,0.0056 -0.0118,0.01393 -0.0192,0.01919 -0.0259,0.0185 -0.0542,0.03058 -0.0703,0.05756 -0.0182,0.0303 -0.003,0.06687 -0.032,0.09593 -0.0337,0.03371 -0.10374,0.05897 -0.13431,0.08954 -0.006,0.0085 -0.0128,0.01705 -0.0192,0.02558 0,0.0021 9.5e-4,0.0045 0,0.0064 -0.0107,0.02134 -0.0351,0.02499 -0.0512,0.03837 -0.0213,0.01771 -0.0357,0.05465 -0.0512,0.07675 -0.013,0.01857 -0.0331,0.03173 -0.0448,0.05116 -0.003,0.0055 0.005,0.01543 0,0.01919 -0.0523,0.03805 -0.19845,0.125155 -0.24303,0.185472 -0.0132,0.01791 0.003,0.07819 -0.006,0.08954 -0.0202,0.02522 -0.0525,0.0435 -0.0704,0.07035 -0.004,0.0056 -0.002,0.01401 -0.006,0.01919 -0.008,0.0099 -0.12083,0.0892 -0.12151,0.08954 -0.0157,0.0079 -0.035,0.006 -0.0512,0.01279 -0.008,0.0032 -0.11412,0.05656 -0.12791,0.07035 -0.002,0.0015 0,0.0043 0,0.0064 -0.009,0.01066 -0.0154,0.02291 -0.0256,0.03198 -0.009,0.0083 -0.022,0.01173 -0.032,0.01919 -0.0145,0.01085 -0.0239,0.02752 -0.0384,0.03837 -0.0287,0.02154 -0.0655,0.03929 -0.0959,0.05756 -0.0652,0.0391 -0.0596,0.04096 -0.14071,0.08314 -0.0953,0.04958 -0.0479,0.0103 -0.1343,0.07675 -0.0113,0.0087 -0.0211,0.01839 -0.0256,0.03198 -6.7e-4,0.002 10e-4,0.0047 0,0.0064 -0.008,0.0094 -0.017,0.01705 -0.0256,0.02558 -0.009,0.01066 -0.0174,0.02106 -0.0256,0.03198 -0.0151,0.02013 -0.0395,0.06169 -0.0576,0.07675 -0.007,0.0061 -0.0174,0.0079 -0.0256,0.01279 -0.041,0.02463 -0.038,0.02968 -0.0831,0.05116 -0.0293,0.01396 -0.0605,0.02385 -0.0895,0.03837 -0.0405,0.02027 -0.11277,0.06564 -0.1471,0.09593 -0.005,0.0046 -0.0424,0.0464 -0.0512,0.06396 -0.0113,0.02267 0.0285,0.0019 -0.0192,0.03837 -0.19066,0.145794 0.0109,-0.02432 -0.17908,0.102329 -0.0114,0.0076 -0.0159,0.02233 -0.0256,0.03198 -0.0193,0.01931 -0.0438,0.03272 -0.064,0.05117 -0.0244,0.02241 -0.0496,0.04445 -0.0703,0.07035 -0.001,0.0017 0,0.0043 0,0.0064 -0.002,0.0043 -0.003,0.0094 -0.006,0.01279 -0.0427,0.04272 -0.0575,0.04377 -0.10873,0.08314 -0.007,0.0055 -0.012,0.01376 -0.0192,0.01919 -0.01,0.0075 -0.0227,0.01093 -0.032,0.01919 -0.0102,0.0091 -0.0148,0.0236 -0.0256,0.03198 -0.009,0.007 -0.0221,0.0069 -0.032,0.01279 -0.0274,0.01645 -0.0504,0.0395 -0.0768,0.05756 -0.0459,0.03139 -0.0952,0.05766 -0.1407,0.08954 -0.003,0.0024 0.002,0.009 0,0.01279 -0.007,0.01424 -0.0185,0.03053 -0.0256,0.04477 -0.01,0.01937 -0.056,0.08795 -0.0703,0.102329 -0.0189,0.01889 -0.0476,0.02936 -0.064,0.05117 -0.0119,0.01581 -0.0242,0.03696 -0.0384,0.05116 -0.0153,0.01534 -0.0367,0.01906 -0.0512,0.03837 -0.005,0.0067 10e-4,0.01592 -0.006,0.02558 -0.0177,0.02211 -0.0495,0.05605 -0.0384,0.08954 0.003,0.0086 0.0128,0.01279 0.0192,0.01919 0.0305,0.0305 0.0601,0.03198 0.10233,0.03198 0.0298,0 0.0599,0.0033 0.0895,0 0.0283,-0.0031 0.0555,-0.01229 0.0831,-0.01919 0.2045,-0.05112 0.16098,-0.02933 0.31978,-0.108725 0.0212,-0.0106 0.0292,-0.02072 0.0512,-0.03198 0.0781,-0.03999 0.15648,-0.07949 0.23664,-0.11512 1.2898,-0.573245 0.12011,-0.03528 0.96573,-0.422107 0.34942,-0.159843 0.15777,-0.06366 0.37094,-0.185472 0.0468,-0.02671 0.0319,-0.0019 0.0959,-0.05116 0.0359,-0.02763 0.0683,-0.05961 0.10233,-0.08954 0.0896,-0.0788 0.18917,-0.147601 0.26862,-0.236636 0.0458,-0.0513 0.0678,-0.119605 0.10233,-0.179076 0.0273,-0.04712 0.0549,-0.09414 0.0831,-0.140702 0.008,-0.01314 0.0187,-0.02462 0.0256,-0.03837 0.002,-0.0038 -0.002,-0.0092 0,-0.01279 0.003,-0.004 0.009,-0.0036 0.0128,-0.0064 0.0324,-0.02287 0.0646,-0.04606 0.0959,-0.07035 0.0539,-0.04181 0.11305,-0.07826 0.15988,-0.127911 0.0724,-0.07676 0.16606,-0.196013 0.20466,-0.306987 0.006,-0.01823 -0.002,-0.04029 0.006,-0.05756 0.0197,-0.03931 0.0614,-0.06411 0.0831,-0.102329 0.0745,-0.131281 0.0576,-0.13496 0.0576,-0.275009 0,-0.02884 0.009,-0.04696 0,-0.07035 -0.0236,-0.05902 -0.0844,-0.10467 -0.1471,-0.11512 -0.006,-0.0011 -0.013,0.0016 -0.0192,0 -0.0174,-0.0044 0.001,-0.04615 -0.0128,-0.05756 -0.007,-0.006 -0.0178,-0.0072 -0.0256,-0.01279 -0.0375,-0.02679 -0.0712,-0.06138 -0.10872,-0.08954 z"
   id="path36" /><path
   style="fill:#000000;fill-opacity:0"
   d="m 347.37507,59.337719 c 0.0452,-0.01833 0.0884,-0.04176 0.12662,-0.07236 0.008,-0.0067 0.0143,-0.01595 0.0226,-0.02261 0.007,-0.0055 0.0156,-0.0083 0.0226,-0.01357 0.0141,-0.01057 0.026,-0.02641 0.0407,-0.03618 0.0172,-0.01148 0.0332,-0.02378 0.0497,-0.03618 0.009,-0.0069 0.0216,-0.02608 0.0271,-0.03166 0.0245,-0.0245 0.0532,-0.04202 0.0769,-0.06784 0.008,-0.0087 0.0158,-0.01755 0.0226,-0.02713 8.7e-4,-0.0012 -10e-4,-0.0035 0,-0.0045 0.0101,-0.01011 0.0552,-0.0424 0.0678,-0.04975 0.0796,-0.04644 -0.009,0.01486 0.0543,-0.02713 0.0151,-0.01007 0.0301,-0.02611 0.0452,-0.03618 0.004,-0.0026 0.009,-0.003 0.0136,-0.0045 0.006,-0.003 0.0126,-0.0051 0.0181,-0.009 0.0285,-0.02034 0.0398,-0.05331 0.0633,-0.07688 0.004,-0.0038 0.0103,-0.0047 0.0136,-0.009 0.002,-0.0024 0,-0.006 0,-0.009 0.005,-0.006 0.008,-0.01276 0.0136,-0.01809 0.009,-0.0092 0.0225,-0.01344 0.0316,-0.02261 0.002,-0.0024 0.002,-0.0067 0.005,-0.009 8.5e-4,-8.54e-4 0.0306,-0.01861 0.0362,-0.02261 0.002,-0.0017 0.0263,-0.02033 0.0316,-0.02261 0.006,-0.0024 0.0124,-0.0021 0.0181,-0.0045 0.0317,-0.01359 0.054,-0.03921 0.0814,-0.05879 0.0145,-0.01034 0.0269,-0.02065 0.0407,-0.03166 0.003,-0.0021 0.007,-0.0019 0.009,-0.0045 0.006,-0.0072 0.009,-0.02026 0.0136,-0.02713 0.007,-0.01094 0.0206,-0.0203 0.0271,-0.03166 0.004,-0.007 0.004,-0.01601 0.009,-0.02261 0.01,-0.01388 0.0466,-0.03075 0.0588,-0.0407 0.008,-0.0068 0.0146,-0.01559 0.0226,-0.02261 0.01,-0.0085 0.0217,-0.01431 0.0317,-0.02261 0.006,-0.0047 0.0179,-0.01931 0.0226,-0.02261 0.019,-0.01333 0.0447,-0.02219 0.0633,-0.03618 0.0103,-0.0077 0.047,-0.03962 0.0543,-0.04975 0.004,-0.0055 0.005,-0.01277 0.009,-0.01809 0.007,-0.0084 0.0163,-0.01399 0.0226,-0.02261 0.006,-0.0082 0.01,-0.01784 0.0136,-0.02713 5.9e-4,-0.0014 -9.8e-4,-0.0034 0,-0.0045 0.0361,-0.04217 0.0152,-0.01667 0.0633,-0.0407 0.0292,-0.01461 0.0538,-0.03703 0.0814,-0.05427 0.0214,-0.01338 0.0354,-0.03325 0.0543,-0.04975 0.028,-0.02453 0.10305,-0.05266 0.11758,-0.07688 0.0355,-0.05919 0.003,-0.0086 0.0136,-0.04975 3.7e-4,-0.0015 0.003,7.9e-4 0.005,0 0.0181,-0.01206 0.0362,-0.02412 0.0543,-0.03618 0.0136,-0.006 0.028,-0.01045 0.0407,-0.01809 0.0202,-0.01212 0.0359,-0.03051 0.0543,-0.04522 0.0258,-0.02064 0.0518,-0.04178 0.0769,-0.06331 0.0203,-0.01741 0.0124,-0.01691 0.0362,-0.0407 0.0152,-0.01515 0.0358,-0.02443 0.0497,-0.0407 0.0293,-0.03413 -0.003,-0.0028 0.005,-0.01809 0.0126,-0.02518 0.0263,-0.03979 0.0497,-0.05879 0.0588,-0.04758 0.12978,-0.07922 0.18542,-0.131148 0.0234,-0.02187 0.0462,-0.04524 0.0633,-0.07236 0.009,-0.01454 0.01,-0.033 0.0136,-0.04975 0.001,-0.0044 -0.003,-0.01037 0,-0.01357 0.0341,-0.03413 0.0389,-0.02454 0.0904,-0.05427 0.0374,-0.02156 0.10904,-0.07609 0.13567,-0.09949 0.024,-0.02111 0.0464,-0.04412 0.0678,-0.06784 0.0181,-0.02004 0.0262,-0.03862 0.0452,-0.05879 0.0417,-0.04421 0.0871,-0.08501 0.12662,-0.131148 0.015,-0.01747 0.0243,-0.03906 0.0362,-0.05879 0.0185,-0.03084 0.0178,-0.0163 0.0678,-0.05427 0.0247,-0.01878 0.0499,-0.03731 0.0723,-0.05879 0.009,-0.0089 0.0285,-0.04244 0.0452,-0.05427 0.1022,-0.06814 0.0335,-0.02129 0.13115,-0.09045 0.015,-0.01064 0.0299,-0.02145 0.0452,-0.03166 0.003,-0.0019 0.007,-0.0021 0.009,-0.0045 0.002,-0.0024 0.002,-0.007 0.005,-0.009 0.0172,-0.01326 0.0362,-0.02412 0.0543,-0.03618 0.0211,-0.01357 0.0434,-0.02546 0.0633,-0.0407 0.0434,0.0079 0.008,-0.016 0.0136,-0.02261 0.01,-0.01123 0.0211,-0.0211 0.0317,-0.03166 0.0496,-0.04964 0.0505,-0.03274 0.0588,-0.09045 0.001,-0.0075 0,-0.01507 0,-0.02261 0,-0.0015 0.001,-0.0037 0,-0.0045 -0.0573,-0.03441 -0.14368,-0.01102 -0.19898,-0.009 -0.0415,0.0015 -0.16019,-0.01009 -0.20803,0.009 -10e-4,5.6e-4 0.001,0.0036 0,0.0045 -0.007,0.0055 -0.0151,0.009 -0.0226,0.01357 -0.0739,0.02864 -0.14566,0.06335 -0.2216,0.08592 -0.0918,0.0273 -0.18643,0.04452 -0.28038,0.06331 -0.088,0.01761 -0.0965,0.0039 -0.17185,0.03166 -0.007,0.0026 -0.0116,0.0097 -0.0181,0.01357 -0.001,7.75e-4 -0.006,0.0011 -0.005,0 0.002,-0.0024 0.006,-0.003 0.009,-0.0045 0.0317,-0.01653 0.0633,-0.03319 0.095,-0.04975 0.18084,-0.09453 0.0273,-0.01743 0.19898,-0.09497 0.0184,-0.0083 0.0355,-0.01962 0.0543,-0.02713 0.0492,-0.01968 0.14414,-0.0484 0.19446,-0.06331 0.009,-0.0026 0.0182,-0.0023 0.0271,-0.0045 0.0119,-0.003 0.0271,-0.01443 0.0271,0.009 0,0.01432 -0.0204,0.02768 -0.0226,0.0407 -0.003,0.01777 0.0285,0.01729 0.009,0.0407 -0.009,0.01036 -0.0465,0.03975 -0.0588,0.04522 -0.04,0.01779 -0.006,-0.0094 -0.0407,0.01357 -0.005,0.003 0.009,-0.0061 0.0136,-0.009 0.0131,-0.0083 0.0275,-0.01452 0.0407,-0.02261 0.0752,-0.04597 0.009,-0.0059 0.0724,-0.05879 0.0147,-0.01228 0.0422,-0.01526 0.0317,-0.02713 -0.0442,-0.04972 -0.14291,-0.06168 -0.2035,-0.05879 -0.0118,5.6e-4 -0.0149,0.01824 -0.0226,0.02713 -0.0147,0.01694 -0.0332,0.03084 -0.0452,0.04975 -0.009,0.01489 -0.0211,0.03237 -0.0181,0.04975 0.006,0.03426 0.15355,0.06247 0.18542,0.05879 0.0131,-0.0015 0.0707,-0.02826 0.0769,-0.04975 0.003,-0.01195 -0.003,-0.02506 -0.009,-0.03618 -0.0132,-0.0265 -0.056,-0.03889 -0.0814,-0.0407 -0.0387,-0.0028 -0.10529,-0.0045 -0.14471,0.01357 -0.0186,0.0085 -0.0328,0.02465 -0.0498,0.03618 -0.0207,0.01411 -0.0426,0.02653 -0.0633,0.0407 -0.0366,0.02504 -0.0735,0.04966 -0.10854,0.07688 -0.006,0.0046 -0.0189,0.01276 -0.0136,0.01809 0.01,0.0098 0.0269,0.0102 0.0407,0.009 0.0593,-0.0049 0.11822,-0.01463 0.17637,-0.02713 0.1201,-0.02583 0.24473,-0.05074 0.35274,-0.113059 0.0188,-0.01085 0.0191,-0.06422 -0.005,-0.0814 -0.0115,-0.0084 -0.0233,-0.01665 -0.0362,-0.02261 -0.0229,-0.01059 -0.1215,-0.0069 -0.14924,0 -0.0523,0.01307 -0.10139,0.05285 -0.14471,0.0814 -0.0875,0.05768 -0.1761,0.113773 -0.25325,0.185416 -0.004,0.0037 -0.0297,0.04415 -0.0317,0.04522 -0.13023,0.07252 -0.2604,0.145334 -0.39344,0.212551 -0.15648,0.07905 -0.31819,0.147439 -0.47485,0.226117 -0.57314,0.287831 -0.45725,0.236277 -0.94517,0.524592 -0.0675,0.03986 -0.13703,0.07613 -0.20351,0.117581 -0.34572,0.21557 -0.0484,0.03728 -0.28038,0.198984 -0.0227,0.01582 -0.0507,0.02341 -0.0724,0.0407 -0.001,9.42e-4 3.3e-4,0.0031 0,0.0045 -0.007,0.03173 -7.7e-4,0.07085 -0.0226,0.09497 -0.111,0.12261 -0.24577,0.221418 -0.36631,0.334654 -0.0288,0.02701 -0.0618,0.05167 -0.0814,0.08593 -0.0254,0.04445 0.0261,0.0035 0.0316,0.009 0.0169,0.01685 0.0237,0.04403 0.0226,0.06784 -0.0228,0.49003 -0.0254,-0.105095 -0.0407,0.217072 -9.9e-4,0.02076 0.014,0.01071 0.0226,0.01357 10e-4,4.77e-4 -5.9e-4,0.0031 0,0.0045 0.004,0.0093 0.009,0.01797 0.0136,0.02713 0.006,0.01345 0.0147,0.02626 0.0181,0.0407 0.004,0.01766 -0.002,0.03724 0.005,0.05427 0.0147,0.0398 0.0767,0.0608 0.0995,0.09497 0.0118,0.01768 0.0132,0.04008 0.0226,0.05879 0.0145,0.02902 0.0507,0.05489 0.0769,0.07236 0.0146,0.0098 0.0286,0.02133 0.0452,0.02713 0.0152,0.0053 0.0645,0.0024 0.0678,0.009 10e-4,0.0027 -0.002,0.0067 0,0.009 0.0143,0.01722 0.0349,0.02847 0.0497,0.04522 0.0119,0.01339 0.0174,0.03067 0.0271,0.04522 0.007,0.01006 0.0193,0.01483 0.0271,0.02261 0.0113,0.01133 0.0211,0.02412 0.0317,0.03618 z"
   id="path37" /><path
   style="fill:none;fill-rule:evenodd;stroke:#000000;stroke-width:1.16938px;stroke-linecap:butt;stroke-linejoin:miter;stroke-opacity:1"
   d="m 218.40847,137.40717 21.71974,19.20269"
   id="path38"
   inkscape:connector-type="polyline"
   inkscape:connector-curvature="0" /><path
   style="fill:none;fill-rule:evenodd;stroke:#000000;stroke-width:1.04064px;stroke-linecap:butt;stroke-linejoin:miter;stroke-opacity:1"
   d="m 249.84722,166.42499 19.12696,19.63609"
   id="path39"
   inkscape:connector-type="polyline"
   inkscape:connector-curvature="0" /><path
   style="fill:none;fill-rule:evenodd;stroke:#000000;stroke-width:1.12707px;stroke-linecap:butt;stroke-linejoin:miter;stroke-opacity:1"
   d="m 173.8321,240.3003 18.82138,20.33064"
   id="path40"
   inkscape:connector-type="polyline"
   inkscape:connector-curvature="0" /><path
   style="fill:none;fill-rule:evenodd;stroke:#000000;stroke-width:1.12707px;stroke-linecap:butt;stroke-linejoin:miter;stroke-opacity:1"
   d="m 174.09809,242.22511 18.82138,20.33064"
   id="path40-2"
   inkscape:connector-type="polyline"
   inkscape:connector-curvature="0" /><path
   style="fill:none;fill-rule:evenodd;stroke:#000000;stroke-width:1.12707px;stroke-linecap:butt;stroke-linejoin:miter;stroke-opacity:1"
   d="m 173.07775,242.63892 18.82138,20.33064"
   id="path40-1"
   inkscape:connector-type="polyline"
   inkscape:connector-curvature="0" /><path
   style="fill:none;fill-rule:evenodd;stroke:#000000;stroke-width:1.09699px;stroke-linecap:butt;stroke-linejoin:miter;stroke-opacity:1"
   d="m 145.41398,214.35533 18.59277,17.61408"
   id="path41"
   inkscape:connector-type="polyline"
   inkscape:connector-curvature="0" /><path
   style="fill:none;fill-rule:evenodd;stroke:#000000;stroke-width:1.09699px;stroke-linecap:butt;stroke-linejoin:miter;stroke-opacity:1"
   d="m 144.37722,214.68761 18.59277,17.61408"
   id="path41-5"
   inkscape:connector-type="polyline"
   inkscape:connector-curvature="0" /><path
   style="fill:none;fill-rule:evenodd;stroke:#000000;stroke-width:1.09699px;stroke-linecap:butt;stroke-linejoin:miter;stroke-opacity:1"
   d="m 145.14714,216.80631 18.59277,17.61408"
   id="path41-5-7"
   inkscape:connector-type="polyline"
   inkscape:connector-curvature="0" /><path
   style="fill:#000000;fill-opacity:0"
   d="m 350.7072,56.3833 c -0.0685,0.01259 -0.13056,0.0666 -0.17908,0.115121 -0.0109,0.01087 -0.0147,0.0275 -0.0256,0.03837 -0.003,0.003 -0.01,-0.003 -0.0128,0 -0.005,0.0054 -0.007,0.07645 -0.0128,0.08954 -0.0185,0.04326 -0.0802,0.122951 -0.11512,0.153493 -0.0303,0.02649 -0.0696,0.04058 -0.10233,0.06396 -0.17431,0.124506 0.10395,-0.07293 -0.11512,0.102329 -0.0194,0.01553 -0.0441,0.02346 -0.064,0.03837 -0.0485,0.03636 -0.0917,0.07948 -0.1407,0.11512 -0.045,0.0327 -0.0976,0.05448 -0.1407,0.08954 -0.0329,0.02676 -0.0819,0.09977 -0.10233,0.140702 -0.0173,0.03465 0.0314,0.01646 -0.0256,0.06396 -0.0682,0.0568 -0.1518,0.09381 -0.21745,0.153493 -0.0202,0.01836 -0.033,0.04355 -0.0512,0.06396 -0.0362,0.04073 -0.0776,0.06478 -0.11512,0.102329 -0.0514,0.05145 -0.10931,0.08518 -0.16628,0.127911 -0.0145,0.01085 -0.0237,0.02786 -0.0384,0.03837 -0.12173,0.08694 0.037,-0.07198 -0.14071,0.08954 -0.0202,0.01836 -0.0302,0.04648 -0.0512,0.06395 -0.0309,0.02575 -0.0714,0.03821 -0.10233,0.06396 -0.0795,0.06629 -0.0448,0.07045 -0.064,0.127911 -0.0139,0.04179 -0.0442,0.08848 -0.064,0.127911 -0.0166,0.03329 -0.0612,0.05547 -0.0895,0.07675 -0.0193,0.01447 -0.0326,0.03572 -0.0512,0.05116 -0.0309,0.02574 -0.10588,0.06963 -0.14071,0.08954 -0.0117,0.0067 -0.0276,0.0047 -0.0384,0.01279 -0.008,0.0057 -0.005,0.01948 -0.0128,0.02558 -0.0191,0.01592 -0.0449,0.02246 -0.064,0.03837 -0.0147,0.01221 -0.0137,0.03628 -0.0256,0.05117 -0.0551,0.0689 -0.11967,0.140297 -0.19187,0.191867 -0.0621,0.04433 -0.15191,0.09296 -0.21745,0.127911 -0.10066,0.05369 -0.0639,0.01598 -0.12791,0.06396 -0.0225,0.01685 -0.004,0.0298 -0.0256,0.05116 -0.0188,0.01881 -0.0677,0.05303 -0.0895,0.06396 -0.003,0.0013 -0.0619,0.04911 -0.064,0.05116 -0.003,0.003 0.003,0.0098 0,0.01279 -0.0224,0.02243 -0.10848,0.07189 -0.12791,0.07675 -0.0639,0.01597 -0.0136,-0.01279 -0.0768,-0.01279 -0.0135,0 -0.0251,0.01015 -0.0384,0.01279 -0.0452,0.009 -0.12074,0.0076 -0.16629,0 -0.12522,-0.02087 -0.11512,-0.18307 -0.11512,-0.281404 0,-0.0043 0.003,0.0098 0,0.01279 -0.003,0.003 -0.009,9.25e-4 -0.0128,0 -0.0343,-0.0076 -0.0684,-0.01633 -0.10233,-0.02558 -0.0506,-0.01379 -0.0963,-0.04739 -0.12791,-0.08954 -0.0423,-0.05642 -0.0216,-0.07526 -0.0128,-0.127912 0.006,-0.03615 -0.009,-0.07946 0,-0.11512 0.008,-0.03077 0.0155,-0.0592 0.0256,-0.08954 0.006,-0.01919 -0.0128,-0.01279 0,-0.03837 0.005,-0.01079 0.0202,-0.0148 0.0256,-0.02558 0.0114,-0.02285 0.008,-0.06488 0.0128,-0.08954 0.007,-0.0352 0.0322,-0.06547 0.0384,-0.102329 0.002,-0.01262 -0.003,-0.02583 0,-0.03837 0.003,-0.01393 0.0808,-0.114137 0.0895,-0.127911 0.0351,-0.05513 0.11801,-0.133704 0.1407,-0.179076 0.002,-0.0038 0,-0.0085 0,-0.01279 0.0128,-0.02132 0.0197,-0.04758 0.0384,-0.06396 0.0173,-0.01512 0.0439,-0.01443 0.064,-0.02558 0.0269,-0.01493 0.0504,-0.03535 0.0767,-0.05116 0.0414,-0.02483 0.0706,-0.07044 0.11512,-0.08954 0.0323,-0.01385 0.0697,-0.01253 0.10233,-0.02558 0.11704,-0.04681 0.2557,-0.10456 0.35815,-0.179075 0.0195,-0.01419 0.0323,-0.0361 0.0512,-0.05116 0.0648,-0.05182 0.12872,-0.09937 0.19187,-0.153494 0.0162,-0.01387 0.0373,-0.02219 0.0512,-0.03837 0.0678,-0.07907 -0.007,-0.04871 0.11512,-0.127911 0.0576,-0.03747 0.11938,-0.06822 0.17908,-0.102329 0.0682,-0.02985 0.14151,-0.05007 0.20465,-0.08954 0.0409,-0.02557 0.0653,-0.07145 0.10233,-0.102329 0.0231,-0.01925 0.14917,-0.0621 0.1535,-0.06396 0.0561,-0.02405 0.11253,-0.0478 0.16628,-0.07675 0.0271,-0.01458 0.0497,-0.03659 0.0768,-0.05116 0.0854,-0.04601 0.18502,-0.06648 0.24303,-0.153494 0.0364,-0.05466 -0.0183,-0.09852 0.0512,-0.140702 0.14798,-0.08984 0.50734,-0.258591 0.66514,-0.319778 0.32086,-0.124415 0.18068,-0.06774 0.37095,-0.102329 0.0173,-0.0031 0.0338,-0.01568 0.0512,-0.01279 0.0438,0.0073 0.0169,0.04225 0.0256,0.06396 0.006,0.01427 0.0157,0.02656 0.0256,0.03837 0.0232,0.02779 0.0653,0.04243 0.0767,0.07675 0.004,0.01279 -0.0106,0.02507 -0.0128,0.03837 -0.003,0.01682 0.005,0.03498 0,0.05116 -0.002,0.0052 -0.033,0.04377 -0.0256,0.05116 0.003,0.003 0.009,-0.0024 0.0128,0 0.0355,0.02365 0.0682,0.05116 0.10233,0.07675 z"
   id="path43" /><path
   style="fill:none;fill-rule:evenodd;stroke:#000000;stroke-width:1.16938px;stroke-linecap:butt;stroke-linejoin:miter;stroke-opacity:1"
   d="m 218.40847,137.40717 21.71974,19.20269"
   id="path44"
   inkscape:connector-type="polyline"
   inkscape:connector-curvature="0" /><path
   style="fill:none;fill-rule:evenodd;stroke:#000000;stroke-width:1.16938px;stroke-linecap:butt;stroke-linejoin:miter;stroke-opacity:1"
   d="m 220.36292,137.91285 21.71974,19.20269"
   id="path44-6"
   inkscape:connector-type="polyline"
   inkscape:connector-curvature="0" /><path
   style="fill:none;fill-rule:evenodd;stroke:#000000;stroke-width:1.16938px;stroke-linecap:butt;stroke-linejoin:miter;stroke-opacity:1"
   d="m 220.85477,136.93154 21.71974,19.20269"
   id="path44-6-9"
   inkscape:connector-type="polyline"
   inkscape:connector-curvature="0" /><path
   style="fill:none;fill-rule:evenodd;stroke:#000000;stroke-width:1.05769px;stroke-linecap:butt;stroke-linejoin:miter;stroke-opacity:1"
   d="m 251.43897,166.5802 18.17251,18.77603"
   id="path44-5"
   inkscape:connector-type="polyline"
   inkscape:connector-curvature="0" /><path
   style="fill:none;fill-rule:evenodd;stroke:#000000;stroke-width:1.05769px;stroke-linecap:butt;stroke-linejoin:miter;stroke-opacity:1"
   d="m 251.93854,165.74258 18.17251,18.77603"
   id="path44-5-6"
   inkscape:connector-type="polyline"
   inkscape:connector-curvature="0" />
   
 </svg>
