<?xml version="1.0" encoding="iso-8859-1"?>
<!-- Generator: Adobe Illustrator 13.0.2, SVG Export Plug-In . SVG Version: 6.00 Build 14948)  -->
<!DOCTYPE svg PUBLIC "-//W3C//DTD SVG 1.1//EN" "http://www.w3.org/Graphics/SVG/1.1/DTD/svg11.dtd">
<svg version="1.1" id="Layer_1" xmlns="http://www.w3.org/2000/svg" xmlns:xlink="http://www.w3.org/1999/xlink" x="0px" y="0px"
	 width="123.547px" height="123.539px" viewBox="-0.258 -0.548 123.547 123.539"
	 style="enable-background:new -0.258 -0.548 123.547 123.539;" xml:space="preserve">
<g>
	<path style="fill:#231F20;" d="M110.07,122.871c8.156,0,14.773-6.609,14.773-14.766V14.082c0-8.148-6.617-14.758-14.773-14.758
		H16.055c-8.156,0-14.758,6.609-14.758,14.758v94.023c0,8.156,6.602,14.766,14.758,14.766H110.07z"/>
	<path style="fill:#FFFFFF;" d="M16.055,1.832c-6.758,0-12.258,5.5-12.258,12.25v94.023c0,6.758,5.5,12.266,12.258,12.266h94.016
		c6.766,0,12.266-5.508,12.266-12.266V14.082c0-6.75-5.5-12.25-12.266-12.25H16.055z"/>
	<path style="fill:#231F20;" d="M89.586,26.105c4.57,0,8.266-3.711,8.266-8.273s-3.695-8.266-8.266-8.266
		c-4.562,0-8.273,3.703-8.273,8.266S85.023,26.105,89.586,26.105z"/>
	<path style="fill:#231F20;" d="M37.172,97.301L9.656,69.699l0.016,4.82l25.609,25.711c2.938,3.188,7.984-0.5,7.984-0.5
		l-2.422-2.586c0,0-2.375,1.562-3.609,0.227L37.172,97.301z"/>
	<rect x="9.891" y="45.246" style="fill:#231F20;" width="28.156" height="3.359"/>
	<polygon style="fill:#231F20;" points="114.172,37.215 117.383,38.559 85.414,102.918 81.875,102.918 	"/>
	<path style="fill:#231F20;" d="M61.125,32.246L48.258,47.105c-0.758,0.938-1.922,1.516-3.211,1.516
		c-2.312,0-4.164-1.859-4.164-4.156c0-1.242,0.539-2.352,1.406-3.117l13.867-15.969c0.766-0.914,1.914-1.508,3.203-1.508
		l20.086-0.008c1.477,0,2.797,0.594,3.773,1.531l12.805,12.797l10.602-10.586c0.75-0.633,1.711-1.008,2.766-1.008
		c2.375,0,4.297,1.93,4.297,4.297c0,1.039-0.359,1.977-0.969,2.719L99.93,46.504c-3.883,3.875-7.008,0.586-7.008,0.586l-7.852-7.883
		L72.805,53.395l11.242,11.242c0,0,2.367,2.195,1.016,6.578l-6.305,28.078c-0.5,2.438-2.656,4.266-5.234,4.266
		c-2.953,0-5.344-2.391-5.344-5.344c0-0.461,0.047-0.914,0.164-1.344l5.18-23.039L60.758,61.418l-10.992,12.25
		c0,0-1.781,2.195-6.492,2.023L21,75.73c-2.492,0.047-4.75-1.656-5.312-4.18c-0.656-2.883,1.125-5.703,4-6.344
		c0.453-0.102,0.906-0.141,1.344-0.125l19.164,0.055l28.336-32.852L61.125,32.246z"/>
</g>
<path style="fill:#231F20;" d="M114.195,102.723c-0.008,2.766-2.305,5-5.062,4.992H26.82v3.391h82.297
	c4.641,0.023,8.422-3.688,8.445-8.352L114.195,102.723z"/>
</svg>
