<?xml version="1.0" encoding="UTF-8" standalone="no"?>
<svg
   version="1.1"
   id="Layer_1"
   x="0px"
   y="0px"
   width="100%"
   viewBox="0 0 819 291"
   enable-background="new 0 0 819 291"
   xml:space="preserve"
   sodipodi:docname="burg.svg"
   inkscape:version="1.1.2 (b8e25be833, 2022-02-05)"
   xmlns:inkscape="http://www.inkscape.org/namespaces/inkscape"
   xmlns:sodipodi="http://sodipodi.sourceforge.net/DTD/sodipodi-0.dtd"
   xmlns="http://www.w3.org/2000/svg"
   xmlns:svg="http://www.w3.org/2000/svg"><defs
   id="defs111" /><sodipodi:namedview
   id="namedview109"
   pagecolor="#ffffff"
   bordercolor="#666666"
   borderopacity="1.0"
   inkscape:pageshadow="2"
   inkscape:pageopacity="0.0"
   inkscape:pagecheckerboard="0"
   showgrid="false"
   inkscape:zoom="2.5836386"
   inkscape:cx="527.35704"
   inkscape:cy="116.30884"
   inkscape:window-width="1718"
   inkscape:window-height="1368"
   inkscape:window-x="-7"
   inkscape:window-y="0"
   inkscape:window-maximized="0"
   inkscape:current-layer="Layer_1" />
<path
   fill="none"
   opacity="1.000000"
   stroke="#000000"
   stroke-linecap="round"
   stroke-linejoin="round"
   stroke-width="4.000000"
   d=" M535.500000,33.000000   C512.000000,32.000000 488.500153,30.996572 464.999939,30.001425   C453.000275,29.493284 440.997375,29.055399 429.000580,28.487574   C408.831787,27.532955 388.668091,26.468777 368.497925,25.545280   C366.331787,25.446104 363.957489,24.806995 362.000000,26.500000  "
   id="path2" />
<path
   fill="none"
   opacity="1.000000"
   stroke="#000000"
   stroke-linecap="round"
   stroke-linejoin="round"
   stroke-width="5.000000"
   d=" M384.500000,178.500000   C385.428802,177.819092 384.958649,176.836472 384.981384,175.999496   C385.497223,157.003326 385.109619,137.996033 385.379730,118.994736   C385.573242,105.381859 385.416473,91.664093 385.047607,77.998718   C384.977356,75.396675 384.659882,73.917404 381.527069,73.350471   C378.241241,72.755867 376.164459,70.537956 376.911163,66.483635   C377.386200,63.904461 376.700073,61.126247 377.053070,58.507153   C378.421936,48.350414 375.854034,40.057827 367.061188,33.912441   C362.834747,30.958544 360.572113,25.772856 356.005035,22.991739   C351.334229,20.147417 353.050476,15.477262 353.105377,11.501454   C353.161194,7.456623 351.599884,6.769223 347.697266,8.279445   C350.874023,17.762514 343.808289,22.594908 337.979248,27.977537   C333.642151,31.982494 330.324707,36.999458 325.489380,40.485268   C323.640442,41.818188 324.004608,43.689373 324.002777,45.500004   C323.995880,52.333328 323.755127,59.178780 324.092346,65.995430   C324.292786,70.047554 323.108154,72.469185 318.997711,72.981697   C314.980530,73.482567 314.400665,75.853310 314.416443,79.500359   C314.559143,112.499741 314.500000,145.500000 314.500000,178.500000  "
   id="path4" />
<path
   fill="none"
   opacity="1.000000"
   stroke="#000000"
   stroke-linecap="round"
   stroke-linejoin="round"
   stroke-width="4.000000"
   d=" M650.500000,178.500000   C650.500000,162.166672 649.936584,145.806549 650.711182,129.510040   C651.176331,119.724915 646.280823,112.694862 641.412476,105.559708   C629.008728,87.380318 616.140381,69.518394 603.522461,51.484272   C601.033325,47.926647 598.778137,44.200375 596.514282,40.491261   C593.826416,36.087288 589.574280,35.634422 585.001282,35.465847   C569.331299,34.888191 553.667358,34.149342 537.998901,33.528229   C536.518250,33.469532 535.178101,33.610733 535.500000,31.500000  "
   id="path6" />
<path
   fill="none"
   opacity="1.000000"
   stroke="#000000"
   stroke-linecap="round"
   stroke-linejoin="round"
   stroke-width="5.000000"
   d=" M510.000000,119.500000   C468.670532,118.373711 427.332764,119.305504 386.000000,119.000000  "
   id="path8" />
<path
   fill="none"
   opacity="1.000000"
   stroke="#000000"
   stroke-linecap="round"
   stroke-linejoin="round"
   stroke-width="7.000000"
   d=" M54.000000,203.750000   C53.333332,203.500000 52.401630,203.450058 52.039452,202.970215   C45.869442,194.795959 37.366314,192.794373 28.457275,196.907455   C24.285099,198.833633 22.592173,201.933609 22.588402,206.000076   C22.584764,209.923004 25.940878,213.034515 30.503433,213.983490   C35.655224,215.055023 40.880405,215.806580 45.987934,217.049576   C52.191570,218.559341 54.713688,221.395874 54.491772,225.999603   C54.188183,232.297623 50.188816,235.068756 45.010983,236.057510   C41.325596,236.761246 37.790058,237.125870 33.985348,236.607559   C27.542601,235.729843 23.500731,232.075912 20.500000,226.750000  "
   id="path10" />
<path
   fill="none"
   opacity="1.000000"
   stroke="#000000"
   stroke-linecap="round"
   stroke-linejoin="round"
   stroke-width="5.000000"
   d=" M229.500000,116.000000   C208.833328,116.000000 188.166641,116.017235 167.500061,115.974251   C165.352585,115.969780 163.656326,116.204460 161.942505,117.943336   C148.044876,132.044235 133.994904,145.994904 120.003883,160.003876   C116.841255,163.170563 115.810318,167.223434 115.527397,171.501816   C115.373764,173.824982 115.500000,176.166672 115.500000,178.500000  "
   id="path12" />
<path
   fill="none"
   opacity="1.000000"
   stroke="#000000"
   stroke-linecap="round"
   stroke-linejoin="round"
   stroke-width="5.000000"
   d=" M229.500000,166.000000   C194.333328,166.000000 159.166672,166.005310 124.000008,165.987350   C121.797150,165.986237 119.496002,166.442627 117.500000,165.000000  "
   id="path14" />
<path
   fill="none"
   opacity="1.000000"
   stroke="#000000"
   stroke-linecap="round"
   stroke-linejoin="round"
   stroke-width="5.000000"
   d=" M298.500000,16.500000   C284.166656,33.500000 269.762665,50.441109 255.529816,67.524841   C248.412308,76.068008 241.635162,84.890198 234.033997,93.031746   C231.887268,95.331108 230.870590,98.062675 230.906113,101.500969   C231.102325,120.498940 231.000000,139.500000 231.000000,158.500000   C231.000000,165.000000 231.000000,171.500000 231.000000,178.000000  "
   id="path16" />
<path
   fill="none"
   opacity="1.000000"
   stroke="#000000"
   stroke-linecap="round"
   stroke-linejoin="round"
   stroke-width="4.000000"
   d=" M648.500000,118.500000   C647.333313,118.833328 646.167419,119.454453 644.999878,119.457436   C622.500061,119.514938 600.000000,119.502693 577.500000,119.498070   C572.000000,119.496941 566.500000,118.143433 561.000000,119.500000  "
   id="path18" />
<path
   fill="none"
   opacity="1.000000"
   stroke="#000000"
   stroke-linecap="round"
   stroke-linejoin="round"
   stroke-width="4.000000"
   d=" M536.000000,34.000000   C534.528687,37.235657 537.791443,38.335060 539.123596,39.894405   C542.939270,44.360935 547.148560,48.544937 551.577271,52.411514   C553.822021,54.371372 554.078247,56.451515 554.018982,59.000443   C553.941528,62.331970 554.055420,65.667892 553.981628,68.999596   C553.927124,71.461121 553.769409,73.763748 556.989380,74.543869   C559.537964,75.161324 559.547546,77.325836 559.524658,79.500259   C559.456055,85.999535 559.500000,92.500000 559.500000,99.000000   C559.500000,125.500000 559.500000,152.000000 559.500000,178.500000  "
   id="path20" />
<path
   fill="none"
   opacity="1.000000"
   stroke="#000000"
   stroke-linecap="round"
   stroke-linejoin="round"
   stroke-width="4.000000"
   d=" M534.000000,37.499996   C529.833313,41.666660 525.938965,46.166092 521.401001,49.878990   C518.539124,52.220509 517.862000,54.726463 517.977600,58.000790   C518.083374,60.997055 518.060486,64.001541 517.983887,66.999588   C517.899353,70.308121 519.187134,74.226677 513.512451,74.661957   C511.519104,74.814850 511.442902,77.474327 511.468964,79.500397   C511.552490,85.999329 511.500000,92.500000 511.500000,99.000000   C511.500000,125.500000 511.500000,152.000000 511.500000,178.500000  "
   id="path22" />
<path
   fill="none"
   opacity="1.000000"
   stroke="#000000"
   stroke-linecap="round"
   stroke-linejoin="round"
   stroke-width="7.000000"
   d=" M796.500000,196.750000   C791.797791,202.408875 790.370239,209.677948 787.079773,216.041245   C784.514648,221.001892 782.688232,226.342545 780.488098,231.494919   C779.731323,233.267136 779.048340,235.221909 776.122314,234.970428   C770.253479,226.096008 767.139587,215.679443 762.522644,205.989197   C760.685120,202.132462 759.895386,197.625290 755.500000,195.500000  "
   id="path24" />
<path
   fill="none"
   opacity="1.000000"
   stroke="#000000"
   stroke-linecap="round"
   stroke-linejoin="round"
   stroke-width="6.000000"
   d=" M659.000000,212.500000   C655.194702,212.978638 653.573059,209.072495 650.057800,208.252365   C644.025330,206.845016 638.775024,207.114319 634.027588,211.033447   C629.050476,215.142166 629.097656,220.996323 630.129028,226.475708   C631.587341,234.222977 644.089050,238.592438 651.987000,234.475082   C654.365601,233.235077 656.271179,231.141205 659.000000,230.500000  "
   id="path26" />
<path
   fill="none"
   opacity="1.000000"
   stroke="#000000"
   stroke-linecap="round"
   stroke-linejoin="round"
   stroke-width="6.000000"
   d=" M521.500000,232.000000   C526.554626,233.502777 530.648926,237.673233 536.504028,237.037308   C545.562195,236.053467 549.312134,231.839005 550.437561,224.989746   C551.809509,216.639893 547.471802,209.546631 539.983337,207.822449   C535.579895,206.808578 530.984680,206.985672 527.053589,209.581177   C525.428345,210.654251 524.144714,212.122803 522.000000,212.000000  "
   id="path28" />
<path
   fill="none"
   opacity="1.000000"
   stroke="#000000"
   stroke-linecap="round"
   stroke-linejoin="round"
   stroke-width="6.000000"
   d=" M372.000000,232.500000   C376.363129,232.646088 379.005157,236.811966 383.494263,237.092056   C393.401642,237.710159 398.810699,232.656311 400.081482,226.015594   C402.043671,215.761993 397.466309,210.016418 390.486450,208.047989   C385.886566,206.750763 381.149323,206.898468 377.068787,209.603745   C375.418823,210.697601 373.848999,211.803879 372.000000,212.500000  "
   id="path30" />
<path
   fill="none"
   opacity="1.000000"
   stroke="#000000"
   stroke-linecap="round"
   stroke-linejoin="round"
   stroke-width="6.000000"
   d=" M217.000000,232.500000   C221.363129,232.646088 223.989334,236.916840 228.497269,237.076935   C236.229904,237.351501 243.221771,234.794922 245.007828,226.001587   C246.839294,216.984695 243.464676,210.263611 235.480988,208.069199   C230.688187,206.751831 225.735138,206.750641 221.542526,210.053986   C220.125397,211.170547 218.824936,212.064438 217.000000,212.000000  "
   id="path32" />
<path
   fill="none"
   opacity="1.000000"
   stroke="#000000"
   stroke-linecap="round"
   stroke-linejoin="round"
   stroke-width="6.000000"
   d=" M693.500000,221.750000   C703.733215,220.919739 714.058105,222.346405 724.270630,220.827255   C723.801514,213.391602 720.031677,208.610367 714.000000,207.500000   C706.915710,206.195847 698.638428,209.536057 696.065369,215.030609   C695.139954,217.006729 695.090576,219.333328 696.000000,221.500000  "
   id="path34" />
<path
   fill="none"
   opacity="1.000000"
   stroke="#000000"
   stroke-linecap="round"
   stroke-linejoin="round"
   stroke-width="7.000000"
   d=" M505.000000,236.000000   C505.000000,230.500000 505.000000,225.000000 505.000000,219.500000   C505.000000,209.392899 496.295319,204.055618 487.007874,208.516388   C484.456116,209.741974 482.000000,211.166672 479.500000,212.500000  "
   id="path36" />
<path
   fill="none"
   opacity="1.000000"
   stroke="#000000"
   stroke-linecap="round"
   stroke-linejoin="round"
   stroke-width="7.000000"
   d=" M174.000000,209.000000   C174.000000,215.000000 173.996490,221.000000 174.000946,227.000000   C174.005951,233.719818 177.247192,237.086319 183.999023,236.951141   C188.087097,236.869293 192.260513,236.810165 195.550751,233.551239   C196.557098,232.554443 198.166656,232.166656 199.500000,231.499985  "
   id="path38" />
<path
   fill="none"
   opacity="1.000000"
   stroke="#000000"
   stroke-linecap="round"
   stroke-linejoin="round"
   stroke-width="7.000000"
   d=" M564.000000,209.000000   C564.000000,215.000000 563.996460,221.000000 564.000916,227.000000   C564.005920,233.744736 567.219604,236.994278 574.000000,236.984573   C577.759705,236.979202 581.320679,236.317795 584.543274,234.061844   C585.967712,233.064713 587.440979,231.685776 589.500000,232.000000  "
   id="path40" />
<path
   fill="none"
   opacity="1.000000"
   stroke="#000000"
   stroke-linecap="round"
   stroke-linejoin="round"
   stroke-width="6.000000"
   d=" M660.500000,209.500000   C658.860535,212.166672 660.367004,214.826340 660.403992,217.501328   C660.509827,225.164230 660.392090,232.847397 659.914673,240.494675   C659.632568,245.013321 653.908691,249.087051 648.501526,249.519348   C641.324402,250.093155 634.608948,249.377213 629.500000,243.500000  "
   id="path42" />
<path
   fill="none"
   opacity="1.000000"
   stroke="#000000"
   stroke-linecap="round"
   stroke-linejoin="round"
   stroke-width="6.000000"
   d=" M464.000000,220.000000   C463.673553,211.310715 458.499390,207.268387 448.000000,207.500000   C440.362000,207.668488 435.581940,213.068100 434.837616,220.483704   C434.129272,227.540588 435.877899,232.721420 442.523285,235.443176   C449.143585,238.154663 455.637695,238.050812 460.935547,232.439163   C462.027252,231.282806 463.699493,231.807449 464.500000,230.500000  "
   id="path44" />
<path
   fill="none"
   opacity="1.000000"
   stroke="#000000"
   stroke-linecap="round"
   stroke-linejoin="round"
   stroke-width="8.000000"
   d=" M159.500000,196.500000   C159.500000,209.500000 159.500000,222.500000 159.500000,235.500000  "
   id="path46" />
<path
   fill="none"
   opacity="1.000000"
   stroke="#000000"
   stroke-linecap="round"
   stroke-linejoin="round"
   stroke-width="6.000000"
   d=" M695.500000,222.500000   C694.296021,228.883026 698.719543,235.116180 705.501892,236.490692   C711.605347,237.727661 717.371521,237.138992 721.943604,232.445084   C723.300537,231.052017 724.899109,230.651764 726.500000,230.000000  "
   id="path48" />
<path
   fill="none"
   opacity="1.000000"
   stroke="#000000"
   stroke-linecap="round"
   stroke-linejoin="round"
   stroke-width="6.000000"
   d=" M147.000000,214.750000   C144.831573,214.390778 144.233109,212.296356 143.055496,210.951416   C138.245621,205.458084 125.623611,207.071106 121.951286,210.953934   C115.537109,217.735809 117.536385,228.889557 121.488907,233.010635   C127.243774,239.010910 141.931259,238.401031 144.476898,230.992065   C145.004730,229.455902 146.390320,229.201706 147.500000,228.500000  "
   id="path50" />
<path
   fill="none"
   opacity="1.000000"
   stroke="#000000"
   stroke-linecap="round"
   stroke-linejoin="round"
   stroke-width="6.000000"
   d=" M352.500000,220.500000   C346.666656,221.333328 340.760956,221.835510 335.019714,223.090256   C328.899536,224.427826 327.225128,227.671799 327.951355,231.010590   C328.705902,234.479858 332.106476,237.254562 336.500092,237.498199   C342.454773,237.828400 347.506500,235.236328 352.492493,232.486374   C354.058990,231.622391 354.004974,230.027603 354.002502,228.500000   C353.995422,224.166672 353.559326,219.775620 354.117218,215.515350   C354.742493,210.740616 351.744324,208.455200 348.450684,207.721344   C344.322296,206.801498 339.728485,206.922440 335.533417,207.684006   C332.217346,208.286011 330.016663,211.350006 328.500000,214.500000  "
   id="path52" />
<path
   fill="none"
   opacity="1.000000"
   stroke="#000000"
   stroke-linecap="round"
   stroke-linejoin="round"
   stroke-width="5.000000"
   d=" M339.000000,25.500000   C336.049011,22.450949 332.335571,24.368057 328.994415,24.060802   C321.186249,23.342760 313.359161,22.453445 305.109863,23.407145   C302.891327,22.017111 301.434082,19.068748 298.500000,18.000000  "
   id="path54" />
<path
   fill="none"
   opacity="1.000000"
   stroke="#000000"
   stroke-linecap="round"
   stroke-linejoin="round"
   stroke-width="8.000000"
   d=" M104.500000,209.500000   C104.740112,217.498474 103.977165,225.517075 104.994652,233.500687   C105.231293,235.357468 104.847267,236.761612 102.500000,236.500000  "
   id="path56" />
<path
   fill="none"
   opacity="1.000000"
   stroke="#000000"
   stroke-linecap="round"
   stroke-linejoin="round"
   stroke-width="6.000000"
   d=" M465.000000,221.000000   C455.179504,221.924026 445.333405,221.338287 435.500000,221.500000  "
   id="path58" />
<path
   fill="none"
   opacity="1.000000"
   stroke="#000000"
   stroke-linecap="round"
   stroke-linejoin="round"
   stroke-width="7.000000"
   d=" M295.500000,214.500000   C300.500000,220.333344 305.666748,226.034714 310.431000,232.054596   C312.883789,235.153824 315.811676,237.032486 319.500000,238.000000  "
   id="path60" />
<path
   fill="none"
   opacity="1.000000"
   stroke="#000000"
   stroke-linecap="round"
   stroke-linejoin="round"
   stroke-width="7.000000"
   d=" M426.500000,197.500000   C426.716248,192.900818 423.338684,194.939545 421.509491,195.104858   C418.467743,195.379745 415.880310,196.390686 415.939697,200.500870   C416.110626,212.331726 416.000000,224.166672 416.000000,236.000000  "
   id="path62" />
<path
   fill="none"
   opacity="1.000000"
   stroke="#000000"
   stroke-linecap="round"
   stroke-linejoin="round"
   stroke-width="7.000000"
   d=" M67.000000,196.000000   C67.000000,202.666672 66.345016,209.416824 67.181351,215.976883   C68.044540,222.747574 66.443062,229.333328 67.000000,236.000000  "
   id="path64" />
<path
   fill="none"
   opacity="1.000000"
   stroke="#000000"
   stroke-linecap="round"
   stroke-linejoin="round"
   stroke-width="6.000000"
   d=" M317.500000,195.000000   C307.872284,198.340347 301.720764,205.961716 294.882996,212.884445   C292.027100,215.775818 288.462250,218.458572 284.000000,219.000000  "
   id="path66" />
<path
   fill="none"
   opacity="1.000000"
   stroke="#000000"
   stroke-linecap="round"
   stroke-linejoin="round"
   stroke-width="7.000000"
   d=" M478.000000,209.000000   C480.059265,211.833328 477.952881,214.665756 477.981079,217.500183   C478.042419,223.666245 478.000000,229.833328 478.000000,236.000000  "
   id="path68" />
<path
   fill="none"
   opacity="1.000000"
   stroke="#000000"
   stroke-linecap="round"
   stroke-linejoin="round"
   stroke-width="7.000000"
   d=" M201.000000,209.000000   C200.707825,216.168579 201.629242,223.370377 200.102615,230.521912   C199.742844,232.207275 200.666672,234.166672 201.000000,236.000000  "
   id="path70" />
<path
   fill="none"
   opacity="1.000000"
   stroke="#000000"
   stroke-linecap="round"
   stroke-linejoin="round"
   stroke-width="7.000000"
   d=" M605.000000,209.000000   C606.289001,218.000000 604.237183,227.000000 605.000000,236.000000  "
   id="path72" />
<path
   fill="none"
   opacity="1.000000"
   stroke="#000000"
   stroke-linecap="round"
   stroke-linejoin="round"
   stroke-width="8.000000"
   d=" M590.500000,209.500000   C590.227112,216.830917 591.143494,224.198639 589.949951,231.491806   C589.660645,233.259964 591.191711,234.383316 591.000000,236.000000  "
   id="path74" />
<path
   fill="none"
   opacity="1.000000"
   stroke="#000000"
   stroke-linecap="round"
   stroke-linejoin="round"
   stroke-width="7.000000"
   d=" M282.000000,197.000000   C282.303864,203.496475 281.867767,209.987061 282.357666,216.510696   C282.842133,222.961792 282.166687,229.500000 282.000031,236.000000  "
   id="path76" />
<path
   fill="none"
   opacity="1.000000"
   stroke="#000000"
   stroke-linecap="round"
   stroke-linejoin="round"
   stroke-width="7.000000"
   d=" M77.500000,219.500000   C81.333336,224.000000 85.627502,228.199020 88.833961,233.108444   C90.886810,236.251556 93.345474,237.090866 96.500000,237.500000  "
   id="path78" />
<path
   fill="none"
   opacity="1.000000"
   stroke="#000000"
   stroke-linecap="round"
   stroke-linejoin="round"
   stroke-width="4.000000"
   d=" M511.500000,259.500000   C511.500000,266.166656 511.500000,272.833344 511.500000,279.500000  "
   id="path80" />
<path
   fill="none"
   opacity="1.000000"
   stroke="#000000"
   stroke-linecap="round"
   stroke-linejoin="round"
   stroke-width="8.000000"
   d=" M215.500000,196.500000   C215.019714,204.326660 216.480530,212.161789 215.102280,220.017944   C214.531418,223.271896 214.576736,226.794571 216.018204,229.991791   C217.048447,232.276855 216.198929,234.144272 215.000000,236.000000  "
   id="path82" />
<path
   fill="none"
   opacity="1.000000"
   stroke="#000000"
   stroke-linecap="round"
   stroke-linejoin="round"
   stroke-width="4.000000"
   d=" M650.500000,259.500000   C650.500000,266.166656 650.500000,272.833344 650.500000,279.500000  "
   id="path84" />
<path
   fill="none"
   opacity="1.000000"
   stroke="#000000"
   stroke-linecap="round"
   stroke-linejoin="round"
   stroke-width="4.000000"
   d=" M559.500000,259.500000   C559.500000,266.166656 559.500000,272.833344 559.500000,279.500000  "
   id="path86" />
<path
   fill="none"
   opacity="1.000000"
   stroke="#000000"
   stroke-linecap="round"
   stroke-linejoin="round"
   stroke-width="5.000000"
   d=" M384.500000,259.500000   C385.332825,266.166656 385.332825,272.833344 384.500000,279.500000  "
   id="path88" />
<path
   fill="none"
   opacity="1.000000"
   stroke="#000000"
   stroke-linecap="round"
   stroke-linejoin="round"
   stroke-width="4.000000"
   d=" M314.500000,259.500000   C314.500000,266.166656 314.500000,272.833344 314.500000,279.500000  "
   id="path90" />
<path
   fill="none"
   opacity="1.000000"
   stroke="#000000"
   stroke-linecap="round"
   stroke-linejoin="round"
   stroke-width="4.000000"
   d=" M115.500000,259.500000   C115.500000,266.166656 115.500000,272.833344 115.500000,279.500000  "
   id="path92" />
<path
   fill="none"
   opacity="1.000000"
   stroke="#000000"
   stroke-linecap="round"
   stroke-linejoin="round"
   stroke-width="4.000000"
   d=" M306.000000,24.000000   C305.861847,25.940521 307.291626,27.006496 308.527313,27.964787   C314.050598,32.248081 317.990112,38.266888 324.000000,42.000000  "
   id="path94" />
<path
   fill="none"
   opacity="1.000000"
   stroke="#000000"
   stroke-linecap="round"
   stroke-linejoin="round"
   stroke-width="8.000000"
   d=" M370.500000,209.500000   C372.373749,212.333328 370.641327,215.222336 370.358215,217.985474   C370.027374,221.214310 369.832977,224.345535 370.511749,227.497467   C371.949219,234.172440 369.706970,240.833328 370.500000,247.500000  "
   id="path96" />
<path
   fill="none"
   opacity="1.000000"
   stroke="#000000"
   stroke-linecap="round"
   stroke-linejoin="round"
   stroke-width="5.000000"
   d=" M231.000000,260.000000   C231.000000,266.333344 231.000000,272.666656 231.000000,279.000000  "
   id="path98" />
<path
   fill="none"
   opacity="1.000000"
   stroke="#000000"
   stroke-linecap="round"
   stroke-linejoin="round"
   stroke-width="8.000000"
   d=" M520.500000,196.500000   C519.918518,204.324509 521.509521,212.162460 520.109558,220.019516   C519.596619,222.898422 519.929443,226.097092 520.620361,228.971054   C521.237671,231.538879 520.764099,233.709335 520.000000,236.000000  "
   id="path100" />
<path
   fill="none"
   opacity="1.000000"
   stroke="#000000"
   stroke-linecap="round"
   stroke-linejoin="round"
   stroke-width="6.000000"
   d=" M94.500000,206.500000   C87.137802,208.270401 81.819023,212.886169 76.880165,218.392517   C74.945702,220.549255 71.666672,221.500000 69.000000,223.000000  "
   id="path102" />
<path
   fill="none"
   opacity="1.000000"
   stroke="#000000"
   stroke-linecap="round"
   stroke-linejoin="round"
   stroke-width="6.000000"
   d=" M620.000000,208.000000   C616.715820,207.722519 613.842346,208.665070 611.511414,211.011322   C610.104797,212.427200 608.434631,213.202652 606.500000,213.500000  "
   id="path104" />
<path
   fill="none"
   opacity="1.000000"
   stroke="#000000"
   stroke-linecap="round"
   stroke-linejoin="round"
   stroke-width="6.000000"
   d=" M408.250000,209.000000   C411.746124,206.958557 415.422211,209.083649 419.007233,208.548553   C421.301910,208.206070 423.666656,208.333328 426.000000,208.250000  "
   id="path106" />
<path
   style="fill:none;stroke:#000000;stroke-width:1px;stroke-linecap:butt;stroke-linejoin:miter;stroke-opacity:1"
   d="m 106.19033,186.51729 c -0.22807,-0.0912 -0.44803,-0.2062 -0.68422,-0.27368 -0.1664,-0.0476 -2.06568,-0.0619 -2.18949,0 -0.0904,0.0452 -0.23196,0.32707 -0.27368,0.41053 -0.0932,0.18648 -0.16143,0.16142 -0.27369,0.27368 -0.38532,0.008 -0.0349,0.30853 -0.13684,0.41053 -0.20575,0.20574 -0.99384,0.16589 -0.82106,0.68422 0.21276,0.63828 -0.0406,2.83316 0,2.8737 0.23466,0.23467 0.50944,0.37261 0.68421,0.54738 0.0645,0.0645 -0.0645,0.20918 0,0.27368 0.0645,0.0645 0.19209,-0.0408 0.27369,0 0.20151,0.10076 0.18156,0.18157 0.27369,0.27369 0.11135,0.11135 0.69296,0.009 0.82105,0.13684 0.0297,0.0297 0.11017,0.26035 0.13685,0.27369 0.0839,0.042 1.16277,0.0688 1.23159,0 0.0323,-0.0322 -0.0323,-0.10459 0,-0.13684 0.1058,-0.10581 0.4615,-0.18782 0.54737,-0.27369 0.0912,-0.0912 0.0456,-0.3193 0.13684,-0.41053 0.004,-0.004 0.92136,-0.10029 1.09475,-0.27369 0.0793,-0.0793 0.19437,-0.46805 0.27368,-0.54737 0.0323,-0.0323 0.11645,0.0408 0.13685,0 0.0408,-0.0816 -0.0408,-0.19209 0,-0.27369 0.0204,-0.0408 0.10459,0.0323 0.13684,0 0.0645,-0.0645 -0.0408,-0.19208 0,-0.27368 0.10076,-0.20151 0.18156,-0.18156 0.27369,-0.27369 0.14176,-0.14176 -0.0521,-1.14685 -0.13685,-1.23159 -0.0323,-0.0323 -0.10458,0.0323 -0.13684,0 -0.13137,-0.13137 0.0864,-0.64829 0,-0.82106 -0.10075,-0.20151 -0.18156,-0.18156 -0.27369,-0.27368 -0.0645,-0.0645 0.0645,-0.20918 0,-0.27369 -0.0323,-0.0323 -0.10458,0.0323 -0.13684,0 -0.0456,-0.0456 -0.0912,-0.36491 -0.13684,-0.41053 -0.0645,-0.0645 -0.20918,0.0645 -0.27369,0 -0.0323,-0.0323 0,-0.0912 0,-0.13684 -0.18246,-0.0912 -0.36491,-0.18246 -0.54737,-0.27369 z"
   id="path152" /><path
   style="fill:none;stroke:#000000;stroke-width:1px;stroke-linecap:butt;stroke-linejoin:miter;stroke-opacity:1"
   d="m 102.76925,186.92782 c 0.3193,0.18246 0.6386,0.36492 0.9579,0.54737 0.10611,0.15188 -0.21685,0.29051 -0.13684,0.41053 0.08,0.12002 0.26693,0.15052 0.41053,0.13685 0.82863,-0.0789 1.64549,-0.25478 2.46318,-0.41053 0.0457,-0.009 0.9579,-0.30684 0.9579,-0.41053 0,-0.23471 -2.85922,0.12235 -3.42108,0.68421 -0.82329,0.82329 1.55213,0.25807 1.9158,0.13685 0.0866,-0.0289 -0.18826,-0.032 -0.27368,0 -0.75392,0.28272 -2.05265,0.93967 -2.05265,1.9158 0,0.13685 -0.0759,0.29667 0,0.41053 0.16002,0.24004 0.53257,-0.27368 0.82106,-0.27368 0.12439,0 -0.13645,1.23198 0,1.36843 0.17205,0.17205 1.11487,0.25356 1.36843,0 1.18797,-1.18797 -0.86449,-1.13818 -0.9579,-1.23159 -0.29246,-0.29246 0.79929,-1.36843 0.68421,-1.36843 -0.0279,0 -0.11012,1.45021 0.27369,1.64211 0.75327,0.37664 0.61665,-1.77896 0.54737,-1.77896 -0.0456,0 -0.006,0.0916 0,0.13685 0.04,0.32005 0.0236,0.65589 0.13685,0.9579 0.0358,0.0955 0.19068,0.0776 0.27368,0.13684 0.23767,0.16977 0.42298,0.41676 0.68422,0.54737 0.65936,0.32968 1.23395,-0.26188 1.09474,-0.9579 -0.0538,-0.26875 -1.5215,-0.78626 -1.77896,-0.9579 -0.10735,-0.0716 -0.15829,-0.21599 -0.27368,-0.27369 -0.0816,-0.0408 -0.18246,0 -0.27369,0 -0.13684,-0.0912 -0.27896,-0.175 -0.41053,-0.27368 -0.4394,-0.32955 -0.7333,-0.87015 -1.09475,-1.23159 -0.0193,-0.0193 -0.38246,-0.014 -0.41053,0 -1.48929,0.74464 -1.50527,1.53483 -1.50527,3.14739 0,0.092 0.0404,0.32977 0,0.41053 -0.007,0.014 -0.25146,0.182 -0.13684,0.27369 0.31266,0.25013 1.2902,0.84713 1.77896,0.68421 0.64537,-0.21512 1.32903,-1.51218 0.82106,-2.18949 -0.17525,-0.23366 -0.46712,-0.35198 -0.68422,-0.54737 -0.72983,-0.65685 -0.4581,-0.64851 -1.23159,-0.9579 -0.78904,-0.31562 -0.18844,1.83841 -0.13684,1.9158 0.041,0.0615 0.99231,0.52177 1.09474,0.54738 0.62227,0.15556 0.91111,-1.12098 0.13685,-1.23159 -0.52383,-0.0748 -0.65076,-0.2664 -1.09475,0 -0.2434,0.14604 -0.701,1.2148 -0.41053,1.50527 0.27334,0.27334 0.71322,0.44522 1.09475,0.41053 0.36624,-0.0333 0.73329,-0.0691 1.09474,-0.13684 0.36971,-0.0693 0.73791,-0.15474 1.09475,-0.27369 0.87244,-0.29081 0.91165,-0.92568 0.13684,-1.36843 -0.39038,-0.22308 -0.94856,-0.13684 -1.36843,-0.13684 -0.18246,0 -0.41836,0.12901 -0.54737,0 -0.0295,-0.0295 -0.0684,-1.1974 0,-1.23159 0.24479,-0.1224 0.55109,0.045 0.82106,0 0.12179,-0.0203 0.53201,-0.28905 0.68421,-0.13685 0.0645,0.0645 -0.0221,0.18519 0,0.27369 0.0701,0.28034 0.42945,0.78322 0.27369,1.09475 -0.0912,0.18245 -0.60822,0.46839 -0.54737,0.27368 0.25562,-0.818 0.72983,-1.55089 1.09474,-2.32633"
   id="path154" /><path
   style="fill:none;stroke:#000000;stroke-width:1px;stroke-linecap:butt;stroke-linejoin:miter;stroke-opacity:1"
   d="m 750.03762,232.90714 c -1.59795,-1.34493 -5.57815,-1.40085 -7.11585,0.13684 -0.5782,0.57821 -0.54737,1.58336 -0.54737,2.32634 0,0.40756 -0.0358,0.84318 0.13684,1.23159 0.5267,1.18506 2.17804,1.75353 3.1474,2.32633 0.42478,0.25101 0.76109,0.67248 1.23159,0.82106 0.43497,0.13736 0.91317,-0.0284 1.36843,0 1.32427,0.0828 2.17153,0.14682 3.42108,-0.54737 0.2325,-0.12917 0.43726,-0.31175 0.68422,-0.41053 0.74988,-0.29996 0.72382,0.19087 0.82105,-0.68422 0.12505,-1.12538 -0.21623,-2.3787 -1.09474,-3.14739 -0.26811,-0.2346 -0.59851,-0.40603 -0.82106,-0.68422 -0.15345,-0.19181 -0.13091,-0.48433 -0.27369,-0.68421 -0.33439,-0.46815 -2.10315,-1.41494 -2.60002,-1.50528 -0.71806,-0.13056 -1.46466,-0.0853 -2.18949,0 -0.18505,0.0218 -1.48467,0.3112 -1.64212,0.54737 -1.27874,1.91812 1.5875,3.62231 3.01055,3.96846 0.88644,0.21562 1.86492,0.26829 2.73687,0 0.43597,-0.13415 0.94637,-0.65616 0.82106,-1.09475 -0.61107,-2.13872 -4.74005,-2.97533 -6.43163,-2.05265 -0.44772,0.24421 -0.56053,0.87368 -0.68422,1.36843 -0.4752,1.9008 3.42335,2.0422 5.33688,2.46318 0.53645,0.11802 1.23385,0.2306 1.64212,-0.13684 0.27959,-0.25163 -0.0143,-0.82237 -0.27368,-1.09475 -1.0035,-1.05367 -4.36558,-3.55767 -6.0211,-2.05265 -0.25705,0.23368 -0.46336,0.61456 -0.41053,0.95791 0.1583,1.02897 4.45186,3.73973 3.83161,-0.13685 -0.15826,-0.98912 -1.87927,-3.28734 -3.01055,-1.77896 -0.30382,0.40509 -0.68933,2.85327 -0.54738,3.42108 0.0247,0.099 0.12493,-0.17239 0.13685,-0.27368 0.11757,-0.99938 0.45328,-1.81319 -0.13685,-2.60002 -0.25964,-0.34619 -0.27368,1.64211 -0.41053,1.23158 -0.13708,-0.41123 0.27097,-1.64075 -0.82106,-1.09474 -0.20399,0.102 -0.3384,0.331 -0.41053,0.54737 -0.0523,0.15694 1.05508,-0.9579 0.68422,-0.9579 -0.0562,0 0.0789,0.2895 0,0.68421 -0.0566,0.28289 -0.21711,0.53818 -0.27369,0.82106 -0.0869,0.43436 0,1.06159 0,1.50528 0,0.67033 0.76706,0.78506 1.23159,1.09475 0.66309,0.44206 1.39951,1.26827 2.18949,1.50527 1.33314,0.39994 4.18865,0.64491 5.33689,-0.27369 0.29984,-0.23987 -0.0822,-3.16096 -1.64212,-0.82106 -0.08,0.12002 -0.23884,0.30854 -0.13684,0.41053 0.45614,0.45615 1.672,-0.79923 1.36843,-1.36843 -0.39875,-0.74766 -2.03349,-0.91294 -2.73686,-0.41053 -0.14848,0.10605 -0.18105,0.57001 0,0.54738 0.69237,-0.0865 1.37571,-0.2413 2.05264,-0.41053 0.0626,-0.0156 0.19863,-0.15538 0.13685,-0.13685 -1.46622,0.43987 -2.03469,0.72165 -3.28424,1.77896 -0.10446,0.0884 -0.10948,0.49264 0,0.41053 0.38791,-0.29093 0.70683,-0.66697 1.09475,-0.9579 0.18607,-0.13955 -0.24086,0.47618 -0.13685,0.68422 0.0912,0.18246 0.35198,0.21507 0.54737,0.27368 0.6399,0.19197 2.01294,0.0618 2.60003,-0.27368 0.39269,-0.2244 0.0572,-0.94553 0,-1.23159 -0.18618,-0.93088 0.1781,-1.26679 -0.41053,-2.32634 -0.30044,-0.54079 -1.44887,-0.78345 -1.91581,-1.09474 -0.29642,-0.19762 -0.54737,-0.45615 -0.82106,-0.68422 -0.39178,-0.32648 -1.07597,-1.10201 -1.36843,-0.68421 -0.78186,1.11695 -0.46058,1.81118 0.54737,2.60002 0.65944,0.51607 1.4243,0.8915 2.18949,1.23159 0.0932,0.0414 0.37569,-0.13685 0.27369,-0.13685 -0.91797,0 -1.6532,0.79961 -2.46318,1.23159 -0.0403,0.0215 -0.15127,0.0433 -0.13684,0 0.14206,-0.42619 0.42395,-0.79962 0.54737,-1.23159 0.52991,-1.85468 -1.59458,0.23192 -1.77896,-0.13684 -0.20803,-0.41607 0.18246,-0.91229 0.27369,-1.36843 0.0179,-0.0895 0.0198,-0.36274 0,-0.27369 -0.11063,0.49784 -0.20157,1.00042 -0.27369,1.50528 -0.0194,0.13546 -0.13684,0.41053 0,0.41053 0.13684,0 0,-0.27369 0,-0.41053 0,-0.50176 0.0499,-1.00601 0,-1.50528 -0.006,-0.0642 -0.0912,0.0912 -0.13684,0.13684 -0.41053,0.41053 -0.90955,0.74852 -1.23159,1.23159 -0.15391,0.23087 -0.1062,0.5453 -0.13684,0.82106 -0.0151,0.13601 -0.0759,0.29667 0,0.41053 0.3647,0.54705 0.60081,0.33569 1.09474,0.54738 0.70078,0.30033 0.17251,0.2806 0.82106,0.82105 0.42634,0.35529 3.09547,2.01965 3.42108,1.36844 0.30272,-0.60545 -0.3404,-1.75114 -0.9579,-1.91581 -1.10368,-0.29431 -1.80975,-0.12914 -2.87371,0.13684 -0.32291,0.0807 -0.20064,0.22353 -0.54737,0.13685 -1.35202,-0.33801 -1.34043,-1.23986 -2.05265,-2.18949 -0.36078,-0.48104 -1.29227,-1.13561 -0.9579,-1.91581 0.0407,-0.0949 0.39931,-0.68421 0.68421,-0.68421 0.0645,0 -0.10799,0.0791 -0.13684,0.13684 -0.50037,1.00074 -0.41053,0.72002 -0.41053,1.64212 0,0.66223 -0.0159,2.1842 0,2.18949 0.39896,0.13299 0.81677,0.20455 1.23159,0.27369 0.13498,0.0225 0.30105,0.0821 0.41053,0 0.71121,-0.53341 -0.72037,-0.69199 -0.82106,-1.09475 -0.24587,-0.98349 0.35878,-1.15644 0.68422,-1.91581 0.0719,-0.1677 -0.17701,-0.50312 0,-0.54737 0.35677,-0.0892 0.72807,-0.16505 1.09474,-0.13684 1.73313,0.13332 1.16805,4.02579 0.54737,3.69477 -0.82786,-0.44153 -2.37787,-1.56452 -1.9158,-2.87371 0.15645,-0.44329 1.44202,-1.158 1.77896,-0.82106 1.06856,1.06856 1.40481,1.71142 1.23159,3.01055 -0.0439,0.32916 -0.0662,0.69859 -0.27369,0.9579 -0.58529,0.73162 -2.12005,0.46261 -2.73686,0 -0.0912,-0.0912 -0.18246,-0.18246 -0.27369,-0.27368 0,-0.0912 0.0645,-0.20918 0,-0.27369 -0.0645,-0.0645 -0.19209,0.0408 -0.27368,0 -0.0408,-0.0204 0.0322,-0.10459 0,-0.13684 -0.0205,-0.0205 -0.64595,-0.27369 -0.68422,-0.27369 -0.063,0 -0.13684,0.9493 -0.13684,1.09474 0,0.18246 -0.0577,0.37428 0,0.54738 0.0612,0.18359 0.26186,0.28664 0.41053,0.41053 1.30795,1.08996 4.47482,1.97564 5.88425,1.09474 0.27649,-0.1728 0.36478,-1.57308 0.41053,-1.77896 0.0408,-0.18359 0.32492,-0.54737 0.13685,-0.54737 -0.3923,0 -1.71371,1.5558 -3.01055,1.23159 -0.65517,-0.16379 -3.70938,-1.80023 -3.1474,-2.73687 0.72246,-1.20409 0.0686,2.39494 0.41053,2.73687 0.63176,0.63176 4.21209,1.17819 4.92636,0.82106 0.0408,-0.0204 0.0443,-0.12578 0,-0.13685 -0.53836,-0.13459 -1.09148,-0.20485 -1.64212,-0.27368 -0.18105,-0.0226 -0.37261,0.0524 -0.54737,0 -1.316,-0.3948 -1.36697,-1.42441 -1.50528,-2.60002 -0.043,-0.36524 -0.20461,-0.73329 -0.13684,-1.09475 0.0752,-0.401 0.23395,-0.83356 0.54737,-1.09475 0.52732,-0.43943 3.40673,-0.66952 3.55792,0.13685 0.10929,0.58283 0.0348,1.187 0,1.77896 -0.10047,1.70815 -1.67205,-0.99296 -1.64211,-1.09475 0.19134,-0.65055 1.26856,-0.48195 1.9158,-0.68421 0.13062,-0.0408 0.41053,-0.13685 0.41053,0 0,0.32254 0.11279,0.75365 -0.13684,0.9579 -0.0186,0.0152 -1.81259,0.42851 -1.91581,0.27369 -0.63233,-0.94851 -0.77487,-3.36462 -0.82106,-4.24214 -0.002,-0.0456 0.11773,-0.0414 0.13685,0 0.26624,0.57686 0.50165,1.17042 0.68421,1.77896 0.0927,0.30894 0.10475,0.63696 0.13685,0.9579 0.11726,1.17259 -1.21426,-0.13167 -1.50528,0.54737 -0.12996,0.30325 -0.15809,1.0905 -0.13684,1.09475 0.67242,0.13448 1.43931,0.44351 2.05265,0.13684 1.79271,-0.89635 -0.7154,-2.55801 -1.64212,-2.32633 -0.28336,0.0708 -0.47019,0.34863 -0.68422,0.54737 -9.9e-4,9.2e-4 -1.61012,1.28672 -1.50527,1.91581 0.0237,0.14228 0.2664,0.1426 0.41053,0.13684 1.00685,-0.0403 2.13566,0.22625 3.01055,-0.27369 0.39802,-0.22744 0.0906,-0.97041 -0.13685,-1.36843 -0.85003,-1.48756 -4.18153,-0.25949 -3.69476,2.05265 0.43869,2.0838 5.61977,3.27898 7.52637,2.18949 0.20195,-0.1154 0.33493,-0.56232 0.13685,-0.68422 -0.61449,-0.37814 -3.97506,-0.8652 -4.78952,-0.68421 -0.12594,0.028 -0.15829,0.21599 -0.27368,0.27368 -0.0408,0.0204 -0.005,-0.0915 0,-0.13684 0.0859,-0.73047 0.35204,-1.45817 0.27368,-2.18949 -0.0632,-0.58961 -0.49669,-1.07956 -0.68421,-1.64212 -0.11865,-0.35593 0.13684,-0.67059 0.13684,-0.13684"
   id="path156" /><path
   style="fill:none;stroke:#000000;stroke-width:1px;stroke-linecap:butt;stroke-linejoin:miter;stroke-opacity:1"
   d="m 752.5008,236.73875 c 0,0.81372 0,0.81372 0,0 z"
   id="path158" /><path
   style="fill:#ffffff;stroke:#000000;stroke-width:1px;stroke-linecap:butt;stroke-linejoin:miter;stroke-opacity:1;fill-opacity:1"
   d="m 802.91801,231.84958 c -1.59795,-1.34493 -5.57815,-1.40085 -7.11585,0.13684 -0.5782,0.57821 -0.54737,1.58336 -0.54737,2.32634 0,0.40756 -0.0358,0.84318 0.13684,1.23159 0.5267,1.18506 2.17804,1.75353 3.1474,2.32633 0.42478,0.25101 0.76109,0.67248 1.23159,0.82106 0.43497,0.13736 0.91317,-0.0284 1.36843,0 1.32427,0.0828 2.17153,0.14682 3.42108,-0.54737 0.2325,-0.12917 0.43726,-0.31175 0.68422,-0.41053 0.74988,-0.29996 0.72382,0.19087 0.82105,-0.68422 0.12505,-1.12538 -0.21623,-2.3787 -1.09474,-3.14739 -0.26811,-0.2346 -0.59851,-0.40603 -0.82106,-0.68422 -0.15345,-0.19181 -0.13091,-0.48433 -0.27369,-0.68421 -0.33439,-0.46815 -2.10315,-1.41494 -2.60002,-1.50528 -0.71806,-0.13056 -1.46466,-0.0853 -2.18949,0 -0.18505,0.0218 -1.48467,0.3112 -1.64212,0.54737 -1.27874,1.91812 1.5875,3.62231 3.01055,3.96846 0.88644,0.21562 1.86492,0.26829 2.73687,0 0.43597,-0.13415 0.94637,-0.65616 0.82106,-1.09475 -0.61107,-2.13872 -4.74005,-2.97533 -6.43163,-2.05265 -0.44772,0.24421 -0.56053,0.87368 -0.68422,1.36843 -0.4752,1.9008 3.42335,2.0422 5.33688,2.46318 0.53645,0.11802 1.23385,0.2306 1.64212,-0.13684 0.27959,-0.25163 -0.0143,-0.82237 -0.27368,-1.09475 -1.0035,-1.05367 -4.36558,-3.55767 -6.0211,-2.05265 -0.25705,0.23368 -0.46336,0.61456 -0.41053,0.95791 0.1583,1.02897 4.45186,3.73973 3.83161,-0.13685 -0.15826,-0.98912 -1.87927,-3.28734 -3.01055,-1.77896 -0.30382,0.40509 -0.68933,2.85327 -0.54738,3.42108 0.0247,0.099 0.12493,-0.17239 0.13685,-0.27368 0.11757,-0.99938 0.45328,-1.81319 -0.13685,-2.60002 -0.25964,-0.34619 -0.27368,1.64211 -0.41053,1.23158 -0.13708,-0.41123 0.27097,-1.64075 -0.82106,-1.09474 -0.20399,0.102 -0.3384,0.331 -0.41053,0.54737 -0.0523,0.15694 1.05508,-0.9579 0.68422,-0.9579 -0.0562,0 0.0789,0.2895 0,0.68421 -0.0566,0.28289 -0.21711,0.53818 -0.27369,0.82106 -0.0869,0.43436 0,1.06159 0,1.50528 0,0.67033 0.76706,0.78506 1.23159,1.09475 0.66309,0.44206 1.39951,1.26827 2.18949,1.50527 1.33314,0.39994 4.18865,0.64491 5.33689,-0.27369 0.29984,-0.23987 -0.0822,-3.16096 -1.64212,-0.82106 -0.08,0.12002 -0.23884,0.30854 -0.13684,0.41053 0.45614,0.45615 1.672,-0.79923 1.36843,-1.36843 -0.39875,-0.74766 -2.03349,-0.91294 -2.73686,-0.41053 -0.14848,0.10605 -0.18105,0.57001 0,0.54738 0.69237,-0.0865 1.37571,-0.2413 2.05264,-0.41053 0.0626,-0.0156 0.19863,-0.15538 0.13685,-0.13685 -1.46622,0.43987 -2.03469,0.72165 -3.28424,1.77896 -0.10446,0.0884 -0.10948,0.49264 0,0.41053 0.38791,-0.29093 0.70683,-0.66697 1.09475,-0.9579 0.18607,-0.13955 -0.24086,0.47618 -0.13685,0.68422 0.0912,0.18246 0.35198,0.21507 0.54737,0.27368 0.6399,0.19197 2.01294,0.0618 2.60003,-0.27368 0.39269,-0.2244 0.0572,-0.94553 0,-1.23159 -0.18618,-0.93088 0.1781,-1.26679 -0.41053,-2.32634 -0.30044,-0.54079 -1.44887,-0.78345 -1.91581,-1.09474 -0.29642,-0.19762 -0.54737,-0.45615 -0.82106,-0.68422 -0.39178,-0.32648 -1.07597,-1.10201 -1.36843,-0.68421 -0.78186,1.11695 -0.46058,1.81118 0.54737,2.60002 0.65944,0.51607 1.4243,0.8915 2.18949,1.23159 0.0932,0.0414 0.37569,-0.13685 0.27369,-0.13685 -0.91797,0 -1.6532,0.79961 -2.46318,1.23159 -0.0403,0.0215 -0.15127,0.0433 -0.13684,0 0.14206,-0.42619 0.42395,-0.79962 0.54737,-1.23159 0.52991,-1.85468 -1.59458,0.23192 -1.77896,-0.13684 -0.20803,-0.41607 0.18246,-0.91229 0.27369,-1.36843 0.0179,-0.0895 0.0198,-0.36274 0,-0.27369 -0.11063,0.49784 -0.20157,1.00042 -0.27369,1.50528 -0.0194,0.13546 -0.13684,0.41053 0,0.41053 0.13684,0 0,-0.27369 0,-0.41053 0,-0.50176 0.0499,-1.00601 0,-1.50528 -0.006,-0.0642 -0.0912,0.0912 -0.13684,0.13684 -0.41053,0.41053 -0.90955,0.74852 -1.23159,1.23159 -0.15391,0.23087 -0.1062,0.5453 -0.13684,0.82106 -0.0151,0.13601 -0.0759,0.29667 0,0.41053 0.3647,0.54705 0.60081,0.33569 1.09474,0.54738 0.70078,0.30033 0.17251,0.2806 0.82106,0.82105 0.42634,0.35529 3.09547,2.01965 3.42108,1.36844 0.30272,-0.60545 -0.3404,-1.75114 -0.9579,-1.91581 -1.10368,-0.29431 -1.80975,-0.12914 -2.87371,0.13684 -0.32291,0.0807 -0.20064,0.22353 -0.54737,0.13685 -1.35202,-0.33801 -1.34043,-1.23986 -2.05265,-2.18949 -0.36078,-0.48104 -1.29227,-1.13561 -0.9579,-1.91581 0.0407,-0.0949 0.39931,-0.68421 0.68421,-0.68421 0.0645,0 -0.10799,0.0791 -0.13684,0.13684 -0.50037,1.00074 -0.41053,0.72002 -0.41053,1.64212 0,0.66223 -0.0159,2.1842 0,2.18949 0.39896,0.13299 0.81677,0.20455 1.23159,0.27369 0.13498,0.0225 0.30105,0.0821 0.41053,0 0.71121,-0.53341 -0.72037,-0.69199 -0.82106,-1.09475 -0.24587,-0.98349 0.35878,-1.15644 0.68422,-1.91581 0.0719,-0.1677 -0.17701,-0.50312 0,-0.54737 0.35677,-0.0892 0.72807,-0.16505 1.09474,-0.13684 1.73313,0.13332 1.16805,4.02579 0.54737,3.69477 -0.82786,-0.44153 -2.37787,-1.56452 -1.9158,-2.87371 0.15645,-0.44329 1.44202,-1.158 1.77896,-0.82106 1.06856,1.06856 1.40481,1.71142 1.23159,3.01055 -0.0439,0.32916 -0.0662,0.69859 -0.27369,0.9579 -0.58529,0.73162 -2.12005,0.46261 -2.73686,0 -0.0912,-0.0912 -0.18246,-0.18246 -0.27369,-0.27368 0,-0.0912 0.0645,-0.20918 0,-0.27369 -0.0645,-0.0645 -0.19209,0.0408 -0.27368,0 -0.0408,-0.0204 0.0322,-0.10459 0,-0.13684 -0.0205,-0.0205 -0.64595,-0.27369 -0.68422,-0.27369 -0.063,0 -0.13684,0.9493 -0.13684,1.09474 0,0.18246 -0.0577,0.37428 0,0.54738 0.0612,0.18359 0.26186,0.28664 0.41053,0.41053 1.30795,1.08996 4.47482,1.97564 5.88425,1.09474 0.27649,-0.1728 0.36478,-1.57308 0.41053,-1.77896 0.0408,-0.18359 0.32492,-0.54737 0.13685,-0.54737 -0.3923,0 -1.71371,1.5558 -3.01055,1.23159 -0.65517,-0.16379 -3.70938,-1.80023 -3.1474,-2.73687 0.72246,-1.20409 0.0686,2.39494 0.41053,2.73687 0.63176,0.63176 4.21209,1.17819 4.92636,0.82106 0.0408,-0.0204 0.0443,-0.12578 0,-0.13685 -0.53836,-0.13459 -1.09148,-0.20485 -1.64212,-0.27368 -0.18105,-0.0226 -0.37261,0.0524 -0.54737,0 -1.316,-0.3948 -1.36697,-1.42441 -1.50528,-2.60002 -0.043,-0.36524 -0.20461,-0.73329 -0.13684,-1.09475 0.0752,-0.401 0.23395,-0.83356 0.54737,-1.09475 0.52732,-0.43943 3.40673,-0.66952 3.55792,0.13685 0.10929,0.58283 0.0348,1.187 0,1.77896 -0.10047,1.70815 -1.67205,-0.99296 -1.64211,-1.09475 0.19134,-0.65055 1.26856,-0.48195 1.9158,-0.68421 0.13062,-0.0408 0.41053,-0.13685 0.41053,0 0,0.32254 0.11279,0.75365 -0.13684,0.9579 -0.0186,0.0152 -1.81259,0.42851 -1.91581,0.27369 -0.63233,-0.94851 -0.77487,-3.36462 -0.82106,-4.24214 -0.002,-0.0456 0.11773,-0.0414 0.13685,0 0.26624,0.57686 0.50165,1.17042 0.68421,1.77896 0.0927,0.30894 0.10475,0.63696 0.13685,0.9579 0.11726,1.17259 -1.21426,-0.13167 -1.50528,0.54737 -0.12996,0.30325 -0.15809,1.0905 -0.13684,1.09475 0.67242,0.13448 1.43931,0.44351 2.05265,0.13684 1.79271,-0.89635 -0.7154,-2.55801 -1.64212,-2.32633 -0.28336,0.0708 -0.47019,0.34863 -0.68422,0.54737 -9.9e-4,9.2e-4 -1.61012,1.28672 -1.50527,1.91581 0.0237,0.14228 0.2664,0.1426 0.41053,0.13684 1.00685,-0.0403 2.13566,0.22625 3.01055,-0.27369 0.39802,-0.22744 0.0906,-0.97041 -0.13685,-1.36843 -0.85003,-1.48756 -4.18153,-0.25949 -3.69476,2.05265 0.43869,2.0838 5.61977,3.27898 7.52637,2.18949 0.20195,-0.1154 0.33493,-0.56232 0.13685,-0.68422 -0.61449,-0.37814 -3.97506,-0.8652 -4.78952,-0.68421 -0.12594,0.028 -0.15829,0.21599 -0.27368,0.27368 -0.0408,0.0204 -0.005,-0.0915 0,-0.13684 0.0859,-0.73047 0.35204,-1.45817 0.27368,-2.18949 -0.0632,-0.58961 -0.49669,-1.07956 -0.68421,-1.64212 -0.11865,-0.35593 0.13684,-0.67059 0.13684,-0.13684"
   id="path156-8" /><path
   style="fill:#ffffff;stroke:#000000;stroke-width:1px;stroke-linecap:butt;stroke-linejoin:miter;stroke-opacity:1;fill-opacity:1"
   d="m 805.38119,235.68119 c 0,0.81372 0,0.81372 0,0 z"
   id="path158-8" /></svg>
