<svg version="1.1" id="Layer_1" xmlns="http://www.w3.org/2000/svg" xmlns:xlink="http://www.w3.org/1999/xlink" x="0px" y="0px"
	 width="100%" viewBox="0 0 977 977" enable-background="new 0 0 977 977" xml:space="preserve">
<path fill="none" opacity="1.000000" stroke="#000000" stroke-linecap="round" stroke-linejoin="round" stroke-width="4.000000"
	d="
M457.000000,805.500000 
	C457.545349,806.618652 457.636810,807.482849 456.530975,808.532654 
	C444.647888,819.813599 432.829254,831.162415 421.001129,842.501160 
	C408.662689,854.329224 396.409393,866.247253 383.980225,877.979065 
	C369.230743,891.901245 354.330566,905.663696 339.505066,919.505432 
	C338.299774,920.630737 337.012909,921.716797 336.025940,923.019653 
	C331.048737,929.589539 331.316284,933.895630 337.008972,939.991638 
	C338.616699,941.713318 340.512360,943.191467 341.966522,945.026550 
	C346.362152,950.573669 350.464203,952.210205 358.400482,944.892090 
	C367.659760,936.354004 376.226196,927.057495 384.986420,917.986877 
	C399.152191,903.319336 412.951660,888.304810 427.460297,873.959839 
	C443.633881,857.968750 459.500031,841.666687 475.500031,825.500000 
"/>
<path fill="none" opacity="1.000000" stroke="#000000" stroke-linecap="round" stroke-linejoin="round" stroke-width="4.000000"
	d="
M428.500000,779.500000 
	C412.500000,795.166687 396.007690,810.366882 380.617340,826.611145 
	C358.455536,850.002319 334.338898,871.335327 311.499451,893.999451 
	C308.835388,896.643127 306.548248,899.331421 306.408783,903.496948 
	C306.285370,907.182617 307.698273,909.987610 310.028137,912.473633 
	C311.717072,914.275635 313.963043,915.606140 315.446442,917.541016 
	C320.640076,924.315674 327.745819,922.014282 332.402679,917.401733 
	C343.537506,906.372803 354.156738,894.823853 365.002838,883.502686 
	C375.972443,872.052856 386.860382,860.496216 397.548767,848.815857 
	C413.679993,831.187439 430.704803,814.448364 447.000000,797.000000 
"/>
<path fill="none" opacity="1.000000" stroke="#000000" stroke-linecap="round" stroke-linejoin="round" stroke-width="4.000000"
	d="
M554.000061,749.000061 
	C567.000061,737.000061 579.955322,724.951172 593.010803,713.011841 
	C611.468384,696.132080 630.200623,679.546509 648.410645,662.405090 
	C656.807312,654.501099 666.434265,647.700134 672.950439,637.966797 
	C681.832947,624.698608 675.323425,614.243591 664.432922,609.659302 
	C658.982849,607.365234 653.124817,609.031006 648.024963,612.042236 
	C644.754456,613.973450 641.571045,616.070374 638.953430,618.957764 
	C637.504578,620.555908 636.269043,622.803711 633.500000,622.500000 
"/>
<path fill="none" opacity="1.000000" stroke="#000000" stroke-linecap="round" stroke-linejoin="round" stroke-width="4.000000"
	d="
M611.500000,290.000031 
	C588.000000,289.000031 564.500122,287.996582 540.999939,287.001434 
	C529.000305,286.493256 516.997375,286.055420 505.000580,285.487549 
	C484.831787,284.532959 464.668091,283.468781 444.497925,282.545258 
	C442.331787,282.446075 439.957489,281.807007 438.000000,283.500000 
"/>
<path fill="none" opacity="1.000000" stroke="#000000" stroke-linecap="round" stroke-linejoin="round" stroke-width="5.000000"
	d="
M460.500000,435.500000 
	C461.428802,434.819092 460.958618,433.836456 460.981354,432.999481 
	C461.497162,414.003326 461.109589,394.996033 461.379700,375.994751 
	C461.573181,362.381866 461.416412,348.664093 461.047577,334.998718 
	C460.977325,332.396698 460.659851,330.917419 457.527069,330.350494 
	C454.241241,329.755890 452.164459,327.537964 452.911163,323.483643 
	C453.386200,320.904480 452.700073,318.126221 453.053070,315.507141 
	C454.421936,305.350403 451.854034,297.057831 443.061218,290.912415 
	C438.834747,287.958527 436.572113,282.772827 432.005066,279.991699 
	C427.334229,277.147400 429.050476,272.477264 429.105377,268.501465 
	C429.161224,264.456635 427.599884,263.769226 423.697266,265.279449 
	C426.874023,274.762512 419.808289,279.594910 413.979279,284.977539 
	C409.642151,288.982513 406.324707,293.999451 401.489349,297.485260 
	C399.640411,298.818146 400.004578,300.689362 400.002747,302.500000 
	C399.995850,309.333344 399.755157,316.178772 400.092377,322.995422 
	C400.292816,327.047546 399.108154,329.469208 394.997711,329.981689 
	C390.980530,330.482544 390.400665,332.853302 390.416443,336.500366 
	C390.559143,369.499756 390.500000,402.500000 390.500000,435.500000 
"/>
<path fill="none" opacity="1.000000" stroke="#000000" stroke-linecap="round" stroke-linejoin="round" stroke-width="4.000000"
	d="
M726.500000,435.500000 
	C726.500000,419.166656 725.936584,402.806549 726.711182,386.510040 
	C727.176331,376.724915 722.280823,369.694885 717.412476,362.559723 
	C705.008728,344.380310 692.140381,326.518372 679.522583,308.484222 
	C677.033386,304.926575 674.778137,301.200378 672.514282,297.491272 
	C669.826416,293.087280 665.574280,292.634460 661.001282,292.465881 
	C645.331299,291.888214 629.667358,291.149323 613.998901,290.528229 
	C612.518250,290.469543 611.178101,290.610748 611.500000,288.500000 
"/>
<path fill="none" opacity="1.000000" stroke="#000000" stroke-linecap="round" stroke-linejoin="round" stroke-width="4.000000"
	d="
M631.500000,620.500000 
	C631.156616,618.159119 633.218933,617.655029 634.482727,616.481384 
	C639.905029,611.446167 644.744751,605.829468 646.393311,598.476074 
	C648.026917,591.189575 644.857727,585.376709 638.994446,581.007507 
	C633.405090,576.842407 627.250854,576.167908 621.027405,579.059021 
	C612.765137,582.897217 606.530640,589.449646 600.547791,596.043335 
	C571.294556,628.283508 543.198853,661.578125 512.509827,692.509766 
	C510.268372,694.768921 507.989990,697.033264 506.080658,699.560913 
	C505.230774,700.685974 504.411438,700.361877 503.500000,700.500000 
"/>
<path fill="none" opacity="1.000000" stroke="#000000" stroke-linecap="round" stroke-linejoin="round" stroke-width="5.000000"
	d="
M586.000000,376.500000 
	C544.670532,375.373718 503.332764,376.305511 462.000000,376.000000 
"/>
<path fill="none" opacity="1.000000" stroke="#000000" stroke-linecap="round" stroke-linejoin="round" stroke-width="7.000000"
	d="
M130.000000,460.750000 
	C129.333344,460.500000 128.401642,460.450043 128.039459,459.970215 
	C121.869446,451.795959 113.366325,449.794403 104.457291,453.907471 
	C100.285118,455.833679 98.592171,458.933624 98.588402,463.000092 
	C98.584763,466.923004 101.940887,470.034485 106.503433,470.983521 
	C111.655220,472.054993 116.880394,472.806610 121.987930,474.049622 
	C128.191589,475.559326 130.713684,478.395844 130.491760,482.999603 
	C130.188171,489.297638 126.188812,492.068787 121.010971,493.057465 
	C117.325592,493.761200 113.790054,494.125916 109.985344,493.607544 
	C103.542603,492.729858 99.500732,489.075897 96.500000,483.750000 
"/>
<path fill="none" opacity="1.000000" stroke="#000000" stroke-linecap="round" stroke-linejoin="round" stroke-width="5.000000"
	d="
M305.500000,373.000000 
	C284.833344,373.000000 264.166626,373.017212 243.500061,372.974213 
	C241.352585,372.969757 239.656296,373.204437 237.942474,374.943298 
	C224.044861,389.044220 209.994904,402.994904 196.003906,417.003906 
	C192.841263,420.170593 191.810303,424.223419 191.527374,428.501801 
	C191.373749,430.824982 191.500000,433.166656 191.500000,435.500000 
"/>
<path fill="none" opacity="1.000000" stroke="#000000" stroke-linecap="round" stroke-linejoin="round" stroke-width="5.000000"
	d="
M305.500000,423.000000 
	C270.333344,423.000000 235.166672,423.005310 200.000000,422.987335 
	C197.797150,422.986237 195.496002,423.442627 193.500000,422.000000 
"/>
<path fill="none" opacity="1.000000" stroke="#000000" stroke-linecap="round" stroke-linejoin="round" stroke-width="4.000000"
	d="
M525.000000,719.500000 
	C559.931274,686.427246 594.862488,653.354431 629.580811,620.483215 
	C632.067749,620.448730 633.077820,621.631409 633.647156,623.832581 
	C601.296143,659.418274 568.876648,695.136169 535.000000,729.500000 
"/>
<path fill="none" opacity="1.000000" stroke="#000000" stroke-linecap="round" stroke-linejoin="round" stroke-width="5.000000"
	d="
M374.500000,273.500000 
	C360.166687,290.500000 345.762665,307.441101 331.529816,324.524841 
	C324.412292,333.067993 317.635162,341.890198 310.034027,350.031769 
	C307.887268,352.331116 306.870575,355.062683 306.906097,358.500977 
	C307.102325,377.498932 307.000000,396.500000 307.000000,415.500000 
	C307.000000,422.000000 307.000000,428.500000 307.000000,435.000000 
"/>
<path fill="none" opacity="1.000000" stroke="#000000" stroke-linecap="round" stroke-linejoin="round" stroke-width="4.000000"
	d="
M724.500000,375.500000 
	C723.333313,375.833344 722.167419,376.454468 720.999878,376.457428 
	C698.500061,376.514923 676.000000,376.502655 653.500000,376.498047 
	C648.000000,376.496918 642.500000,375.143433 637.000000,376.500000 
"/>
<path fill="none" opacity="1.000000" stroke="#000000" stroke-linecap="round" stroke-linejoin="round" stroke-width="4.000000"
	d="
M612.000000,291.000000 
	C610.528687,294.235657 613.791443,295.335052 615.123596,296.894409 
	C618.939270,301.360931 623.148560,305.544952 627.577271,309.411530 
	C629.822021,311.371368 630.078247,313.451538 630.019043,316.000427 
	C629.941528,319.331970 630.055420,322.667877 629.981628,325.999603 
	C629.927124,328.461121 629.769409,330.763733 632.989380,331.543823 
	C635.537964,332.161285 635.547607,334.325867 635.524658,336.500275 
	C635.456116,342.999542 635.500000,349.500000 635.500000,356.000000 
	C635.500000,382.500000 635.500000,409.000000 635.500000,435.500000 
"/>
<path fill="none" opacity="1.000000" stroke="#000000" stroke-linecap="round" stroke-linejoin="round" stroke-width="4.000000"
	d="
M610.000061,294.500031 
	C605.833374,298.666718 601.938965,303.166138 597.401001,306.878967 
	C594.539124,309.220490 593.861938,311.726471 593.977478,315.000793 
	C594.083313,317.997070 594.060425,321.001556 593.983826,323.999573 
	C593.899292,327.308136 595.187134,331.226654 589.512390,331.661896 
	C587.519104,331.814819 587.442871,334.474335 587.468872,336.500397 
	C587.552429,342.999329 587.500000,349.500000 587.500000,356.000000 
	C587.500000,382.500000 587.500000,409.000000 587.500000,435.500000 
"/>
<path fill="none" opacity="1.000000" stroke="#000000" stroke-linecap="round" stroke-linejoin="round" stroke-width="7.000000"
	d="
M872.500000,453.750000 
	C867.797791,459.408875 866.370178,466.677917 863.079651,473.041199 
	C860.514526,478.001831 858.688293,483.342560 856.488159,488.494934 
	C855.731323,490.267181 855.048340,492.221924 852.122314,491.970428 
	C846.253479,483.096008 843.139587,472.679443 838.522705,462.989197 
	C836.685120,459.132446 835.895386,454.625305 831.500000,452.500000 
"/>
<path fill="none" opacity="1.000000" stroke="#000000" stroke-linecap="round" stroke-linejoin="round" stroke-width="6.000000"
	d="
M448.000000,489.500000 
	C452.363129,489.646088 455.005157,493.811920 459.494263,494.091980 
	C469.401611,494.710114 474.810669,489.656311 476.081482,483.015594 
	C478.043671,472.761963 473.466278,467.016418 466.486450,465.048035 
	C461.886566,463.750793 457.149292,463.898438 453.068756,466.603699 
	C451.418793,467.697540 449.848999,468.803864 448.000000,469.500000 
"/>
<path fill="none" opacity="1.000000" stroke="#000000" stroke-linecap="round" stroke-linejoin="round" stroke-width="6.000000"
	d="
M597.500000,489.000000 
	C602.554626,490.502777 606.648926,494.673218 612.504028,494.037292 
	C621.562134,493.053467 625.312134,488.839050 626.437500,481.989746 
	C627.809509,473.639893 623.471802,466.546692 615.983276,464.822510 
	C611.579834,463.808594 606.984619,463.985626 603.053589,466.581146 
	C601.428345,467.654205 600.144714,469.122803 598.000000,469.000000 
"/>
<path fill="none" opacity="1.000000" stroke="#000000" stroke-linecap="round" stroke-linejoin="round" stroke-width="6.000000"
	d="
M735.000000,469.500000 
	C731.194702,469.978638 729.573059,466.072510 726.057739,465.252441 
	C720.025330,463.845062 714.775024,464.114319 710.027588,468.033447 
	C705.050476,472.142151 705.097717,477.996338 706.129089,483.475708 
	C707.587341,491.222992 720.089050,495.592438 727.987000,491.475037 
	C730.365601,490.235046 732.271179,488.141205 735.000000,487.500000 
"/>
<path fill="none" opacity="1.000000" stroke="#000000" stroke-linecap="round" stroke-linejoin="round" stroke-width="6.000000"
	d="
M293.000000,489.500000 
	C297.363129,489.646088 299.989319,493.916840 304.497253,494.076935 
	C312.229797,494.351471 319.221680,491.795074 321.007782,483.001587 
	C322.839325,473.984650 319.464722,467.263550 311.480988,465.069122 
	C306.688202,463.751801 301.735138,463.750671 297.542542,467.053986 
	C296.125366,468.170532 294.824921,469.064423 293.000000,469.000000 
"/>
<path fill="none" opacity="1.000000" stroke="#000000" stroke-linecap="round" stroke-linejoin="round" stroke-width="6.000000"
	d="
M769.500000,478.750000 
	C779.733215,477.919739 790.058105,479.346405 800.270630,477.827240 
	C799.801514,470.391602 796.031677,465.610321 790.000000,464.500000 
	C782.915710,463.195831 774.638367,466.536041 772.065308,472.030579 
	C771.139893,474.006683 771.090576,476.333344 772.000000,478.500000 
"/>
<path fill="none" opacity="1.000000" stroke="#000000" stroke-linecap="round" stroke-linejoin="round" stroke-width="7.000000"
	d="
M640.000000,466.000000 
	C640.000000,472.000000 639.996460,478.000000 640.000916,484.000000 
	C640.005920,490.744751 643.219604,493.994263 650.000000,493.984558 
	C653.759705,493.979187 657.320679,493.317810 660.543274,491.061859 
	C661.967712,490.064697 663.440979,488.685791 665.500000,489.000000 
"/>
<path fill="none" opacity="1.000000" stroke="#000000" stroke-linecap="round" stroke-linejoin="round" stroke-width="7.000000"
	d="
M250.000000,466.000000 
	C250.000000,472.000000 249.996490,478.000000 250.000946,484.000000 
	C250.005951,490.719818 253.247192,494.086304 259.999023,493.951111 
	C264.087097,493.869263 268.260529,493.810181 271.550751,490.551239 
	C272.557098,489.554474 274.166656,489.166656 275.500000,488.500000 
"/>
<path fill="none" opacity="1.000000" stroke="#000000" stroke-linecap="round" stroke-linejoin="round" stroke-width="7.000000"
	d="
M581.000000,493.000000 
	C581.000000,487.500000 581.000000,482.000000 581.000000,476.500000 
	C581.000000,466.392883 572.295288,461.055573 563.007812,465.516327 
	C560.456055,466.741943 558.000000,468.166687 555.500000,469.500031 
"/>
<path fill="none" opacity="1.000000" stroke="#000000" stroke-linecap="round" stroke-linejoin="round" stroke-width="6.000000"
	d="
M736.500000,466.500000 
	C734.860535,469.166656 736.367065,471.826355 736.404053,474.501312 
	C736.509888,482.164215 736.392090,489.847412 735.914673,497.494659 
	C735.632568,502.013336 729.908691,506.087128 724.501526,506.519409 
	C717.324402,507.093201 710.608948,506.377197 705.500000,500.500000 
"/>
<path fill="none" opacity="1.000000" stroke="#000000" stroke-linecap="round" stroke-linejoin="round" stroke-width="6.000000"
	d="
M540.000000,477.000000 
	C539.673584,468.310699 534.499390,464.268402 524.000000,464.499969 
	C516.362000,464.668488 511.582001,470.068115 510.837677,477.483704 
	C510.129364,484.540588 511.877869,489.721436 518.523254,492.443207 
	C525.143616,495.154694 531.637695,495.050812 536.935486,489.439117 
	C538.027222,488.282776 539.699524,488.807465 540.500000,487.500000 
"/>
<path fill="none" opacity="1.000000" stroke="#000000" stroke-linecap="round" stroke-linejoin="round" stroke-width="8.000000"
	d="
M235.500000,453.500000 
	C235.500000,466.500000 235.500000,479.500000 235.500000,492.500000 
"/>
<path fill="none" opacity="1.000000" stroke="#000000" stroke-linecap="round" stroke-linejoin="round" stroke-width="6.000000"
	d="
M771.500000,479.500000 
	C770.296021,485.883026 774.719543,492.116180 781.501892,493.490723 
	C787.605347,494.727631 793.371521,494.138977 797.943604,489.445068 
	C799.300537,488.052002 800.899109,487.651764 802.500000,487.000000 
"/>
<path fill="none" opacity="1.000000" stroke="#000000" stroke-linecap="round" stroke-linejoin="round" stroke-width="6.000000"
	d="
M223.000000,471.750000 
	C220.831573,471.390778 220.233109,469.296356 219.055496,467.951416 
	C214.245621,462.458099 201.623581,464.071106 197.951309,467.953949 
	C191.537109,474.735809 193.536407,485.889526 197.488922,490.010620 
	C203.243744,496.010925 217.931274,495.401031 220.476929,487.992065 
	C221.004730,486.455902 222.390320,486.201721 223.500000,485.500000 
"/>
<path fill="none" opacity="1.000000" stroke="#000000" stroke-linecap="round" stroke-linejoin="round" stroke-width="6.000000"
	d="
M428.500000,477.500000 
	C422.666656,478.333344 416.760956,478.835480 411.019714,480.090240 
	C404.899536,481.427795 403.225159,484.671814 403.951385,488.010559 
	C404.705963,491.479858 408.106445,494.254578 412.500092,494.498199 
	C418.454773,494.828430 423.506500,492.236328 428.492462,489.486359 
	C430.058990,488.622375 430.005035,487.027618 430.002533,485.500000 
	C429.995453,481.166656 429.559357,476.775635 430.117279,472.515350 
	C430.742554,467.740631 427.744324,465.455170 424.450684,464.721313 
	C420.322296,463.801483 415.728485,463.922424 411.533417,464.683990 
	C408.217346,465.285950 406.016663,468.350006 404.500000,471.500000 
"/>
<path fill="none" opacity="1.000000" stroke="#000000" stroke-linecap="round" stroke-linejoin="round" stroke-width="5.000000"
	d="
M415.000000,282.500000 
	C412.049011,279.450958 408.335541,281.368103 404.994415,281.060822 
	C397.186249,280.342773 389.359161,279.453461 381.109863,280.407135 
	C378.891327,279.017120 377.434082,276.068756 374.500000,275.000000 
"/>
<path fill="none" opacity="1.000000" stroke="#000000" stroke-linecap="round" stroke-linejoin="round" stroke-width="8.000000"
	d="
M180.500000,466.500000 
	C180.740112,474.498474 179.977142,482.517059 180.994644,490.500671 
	C181.231277,492.357483 180.847275,493.761627 178.500000,493.500000 
"/>
<path fill="none" opacity="1.000000" stroke="#000000" stroke-linecap="round" stroke-linejoin="round" stroke-width="6.000000"
	d="
M541.000000,478.000000 
	C531.179504,478.924042 521.333435,478.338287 511.500000,478.500000 
"/>
<path fill="none" opacity="1.000000" stroke="#000000" stroke-linecap="round" stroke-linejoin="round" stroke-width="7.000000"
	d="
M502.500000,454.500000 
	C502.716248,449.900818 499.338684,451.939514 497.509460,452.104797 
	C494.467743,452.379669 491.880310,453.390686 491.939728,457.500885 
	C492.110626,469.331757 492.000000,481.166656 492.000000,493.000000 
"/>
<path fill="none" opacity="1.000000" stroke="#000000" stroke-linecap="round" stroke-linejoin="round" stroke-width="7.000000"
	d="
M371.500000,471.500000 
	C376.500000,477.333344 381.666748,483.034729 386.431000,489.054596 
	C388.883789,492.153809 391.811676,494.032501 395.500000,495.000000 
"/>
<path fill="none" opacity="1.000000" stroke="#000000" stroke-linecap="round" stroke-linejoin="round" stroke-width="7.000000"
	d="
M143.000000,453.000000 
	C143.000000,459.666656 142.345016,466.416840 143.181351,472.976868 
	C144.044540,479.747559 142.443054,486.333344 143.000000,493.000000 
"/>
<path fill="none" opacity="1.000000" stroke="#000000" stroke-linecap="round" stroke-linejoin="round" stroke-width="6.000000"
	d="
M393.500000,452.000000 
	C383.872284,455.340332 377.720795,462.961731 370.882996,469.884430 
	C368.027130,472.775848 364.462250,475.458557 360.000000,476.000000 
"/>
<path fill="none" opacity="1.000000" stroke="#000000" stroke-linecap="round" stroke-linejoin="round" stroke-width="7.000000"
	d="
M554.000000,466.000000 
	C556.059265,468.833344 553.952820,471.665741 553.981018,474.500183 
	C554.042419,480.666229 554.000000,486.833344 554.000000,493.000000 
"/>
<path fill="none" opacity="1.000000" stroke="#000000" stroke-linecap="round" stroke-linejoin="round" stroke-width="7.000000"
	d="
M277.000000,466.000000 
	C276.707825,473.168579 277.629242,480.370392 276.102600,487.521912 
	C275.742828,489.207306 276.666656,491.166656 277.000000,493.000000 
"/>
<path fill="none" opacity="1.000000" stroke="#000000" stroke-linecap="round" stroke-linejoin="round" stroke-width="7.000000"
	d="
M681.000000,466.000000 
	C682.289001,475.000000 680.237183,484.000000 681.000000,493.000000 
"/>
<path fill="none" opacity="1.000000" stroke="#000000" stroke-linecap="round" stroke-linejoin="round" stroke-width="7.000000"
	d="
M153.500000,476.500000 
	C157.333344,481.000000 161.627533,485.199005 164.833969,490.108429 
	C166.886810,493.251556 169.345474,494.090881 172.500000,494.500000 
"/>
<path fill="none" opacity="1.000000" stroke="#000000" stroke-linecap="round" stroke-linejoin="round" stroke-width="8.000000"
	d="
M666.500000,466.500000 
	C666.227112,473.830933 667.143616,481.198669 665.950073,488.491821 
	C665.660706,490.259979 667.191711,491.383331 667.000000,493.000000 
"/>
<path fill="none" opacity="1.000000" stroke="#000000" stroke-linecap="round" stroke-linejoin="round" stroke-width="7.000000"
	d="
M358.000000,454.000000 
	C358.303864,460.496490 357.867798,466.987061 358.357697,473.510681 
	C358.842163,479.961792 358.166656,486.500000 358.000000,493.000000 
"/>
<path fill="none" opacity="1.000000" stroke="#000000" stroke-linecap="round" stroke-linejoin="round" stroke-width="8.000000"
	d="
M291.500000,453.500000 
	C291.019714,461.326660 292.480499,469.161774 291.102234,477.017944 
	C290.531403,480.271881 290.576721,483.794556 292.018188,486.991791 
	C293.048431,489.276855 292.198944,491.144257 291.000000,493.000000 
"/>
<path fill="none" opacity="1.000000" stroke="#000000" stroke-linecap="round" stroke-linejoin="round" stroke-width="4.000000"
	d="
M191.500000,516.500000 
	C191.500000,523.166687 191.500000,529.833313 191.500000,536.500000 
"/>
<path fill="none" opacity="1.000000" stroke="#000000" stroke-linecap="round" stroke-linejoin="round" stroke-width="4.000000"
	d="
M390.500000,516.500000 
	C390.500000,523.166687 390.500000,529.833313 390.500000,536.500000 
"/>
<path fill="none" opacity="1.000000" stroke="#000000" stroke-linecap="round" stroke-linejoin="round" stroke-width="5.000000"
	d="
M460.500000,516.500000 
	C461.332825,523.166687 461.332825,529.833313 460.500000,536.500000 
"/>
<path fill="none" opacity="1.000000" stroke="#000000" stroke-linecap="round" stroke-linejoin="round" stroke-width="4.000000"
	d="
M587.500000,516.500000 
	C587.500000,523.166687 587.500000,529.833313 587.500000,536.500000 
"/>
<path fill="none" opacity="1.000000" stroke="#000000" stroke-linecap="round" stroke-linejoin="round" stroke-width="4.000000"
	d="
M635.500000,516.500000 
	C635.500000,523.166687 635.500000,529.833313 635.500000,536.500000 
"/>
<path fill="none" opacity="1.000000" stroke="#000000" stroke-linecap="round" stroke-linejoin="round" stroke-width="4.000000"
	d="
M726.500000,516.500000 
	C726.500000,523.166687 726.500000,529.833313 726.500000,536.500000 
"/>
<path fill="none" opacity="1.000000" stroke="#000000" stroke-linecap="round" stroke-linejoin="round" stroke-width="8.000000"
	d="
M446.500000,466.500000 
	C448.373749,469.333344 446.641357,472.222321 446.358246,474.985474 
	C446.027405,478.214294 445.832977,481.345551 446.511749,484.497467 
	C447.949249,491.172424 445.706970,497.833344 446.500000,504.500000 
"/>
<path fill="none" opacity="1.000000" stroke="#000000" stroke-linecap="round" stroke-linejoin="round" stroke-width="4.000000"
	d="
M382.000000,281.000000 
	C381.861847,282.940521 383.291626,284.006500 384.527313,284.964752 
	C390.050598,289.248077 393.990112,295.266876 400.000000,299.000000 
"/>
<path fill="none" opacity="1.000000" stroke="#000000" stroke-linecap="round" stroke-linejoin="round" stroke-width="5.000000"
	d="
M307.000000,517.000000 
	C307.000000,523.333313 307.000000,529.666687 307.000000,536.000000 
"/>
<path fill="none" opacity="1.000000" stroke="#000000" stroke-linecap="round" stroke-linejoin="round" stroke-width="8.000000"
	d="
M596.500000,453.500000 
	C595.918518,461.324493 597.509521,469.162476 596.109619,477.019531 
	C595.596619,479.898438 595.929443,483.097107 596.620300,485.971069 
	C597.237610,488.538879 596.764099,490.709351 596.000000,493.000000 
"/>
<path fill="none" opacity="1.000000" stroke="#000000" stroke-linecap="round" stroke-linejoin="round" stroke-width="6.000000"
	d="
M170.500000,463.500000 
	C163.137802,465.270416 157.818985,469.886108 152.880142,475.392487 
	C150.945694,477.549225 147.666672,478.500000 145.000000,480.000000 
"/>
<path fill="none" opacity="1.000000" stroke="#000000" stroke-linecap="round" stroke-linejoin="round" stroke-width="6.000000"
	d="
M696.000000,465.000000 
	C692.715820,464.722534 689.842346,465.665039 687.511414,468.011322 
	C686.104736,469.427185 684.434631,470.202637 682.500000,470.500000 
"/>
<path fill="none" opacity="1.000000" stroke="#000000" stroke-linecap="round" stroke-linejoin="round" stroke-width="6.000000"
	d="
M484.250000,466.000000 
	C487.746124,463.958557 491.422211,466.083649 495.007263,465.548553 
	C497.301910,465.206055 499.666656,465.333344 502.000000,465.250000 
"/>
<path fill="none" opacity="1.000000" stroke="#000000" stroke-linecap="round" stroke-linejoin="round" stroke-width="4.000000"
	d="
M350.500000,579.000000 
	C341.841064,580.659912 333.336426,582.837219 326.016357,588.023132 
	C313.110779,597.166138 307.497192,610.536072 305.039734,625.506531 
	C302.425262,641.433411 308.812225,654.513428 319.059326,665.946838 
	C327.488281,675.351624 338.055267,682.356873 348.047028,689.937988 
	C361.269043,699.970093 373.719757,710.853210 386.056610,721.937012 
	C416.244995,749.059143 445.045624,777.608582 473.430084,806.568542 
	C498.265015,831.906921 522.212585,858.116699 547.119263,883.382446 
	C559.879639,896.326721 572.275208,909.578247 584.437317,923.056580 
	C589.538086,928.709351 594.713623,934.045532 600.920227,938.608521 
	C618.983643,951.888489 642.107117,949.714539 657.908081,937.382202 
	C673.649048,925.096802 678.975586,907.746033 677.270935,888.520325 
	C676.432678,879.065979 671.410645,870.764099 665.034729,863.469604 
	C656.533691,853.744019 646.262024,846.107788 635.961121,838.552979 
	C619.026489,826.132874 604.010071,811.548340 588.469727,797.533569 
	C557.281311,769.406860 528.114685,739.219177 498.580322,709.420410 
	C473.855957,684.474670 449.573273,659.075989 425.611176,633.396240 
	C413.864594,620.807617 402.439606,607.867249 390.768768,595.213257 
	C380.467102,584.043823 366.853638,578.032593 351.000000,579.000000 
"/>
</svg>