<svg version="1.1" id="Layer_1" xmlns="http://www.w3.org/2000/svg" xmlns:xlink="http://www.w3.org/1999/xlink" x="0px" y="0px"
	 width="100%" viewBox="0 0 411 413" enable-background="new 0 0 411 413" xml:space="preserve">
<path fill="none" opacity="1.000000" stroke="#000000" stroke-linecap="round" stroke-linejoin="round" stroke-width="4.000000"
	d="
M173.000000,241.500000 
	C173.545349,242.618668 173.636826,243.482849 172.530991,244.532639 
	C160.647873,255.813538 148.829224,267.162384 137.001144,278.501190 
	C124.662727,290.329224 112.409401,302.247253 99.980301,313.979126 
	C85.230774,327.901245 70.330597,341.663727 55.505081,355.505432 
	C54.299824,356.630768 53.012856,357.716827 52.025906,359.019623 
	C47.048740,365.589569 47.316322,369.895569 53.009010,375.991577 
	C54.616753,377.713257 56.512344,379.191467 57.966499,381.026550 
	C62.362125,386.573700 66.464195,388.210236 74.400536,380.892120 
	C83.659813,372.354065 92.226196,363.057495 100.986443,353.986908 
	C115.152168,339.319305 128.951599,324.304718 143.460205,309.959747 
	C159.633759,293.968628 175.500000,277.666656 191.500000,261.500000 
"/>
<path fill="none" opacity="1.000000" stroke="#000000" stroke-linecap="round" stroke-linejoin="round" stroke-width="4.000000"
	d="
M144.500000,215.500000 
	C128.500000,231.166656 112.007751,246.366943 96.617302,262.611145 
	C74.455513,286.002289 50.338882,307.335297 27.499441,329.999451 
	C24.835344,332.643097 22.548223,335.331390 22.408754,339.496948 
	C22.285351,343.182587 23.698307,345.987579 26.028191,348.473572 
	C27.717104,350.275604 29.963045,351.606140 31.446432,353.541077 
	C36.640102,360.315796 43.744175,358.012817 48.402561,353.401581 
	C59.373165,342.541931 69.911781,331.240326 80.482399,319.983490 
	C98.320183,300.987701 115.731873,281.593262 133.986923,262.987152 
	C143.727310,253.059494 153.333328,243.000000 163.000000,233.000000 
"/>
<path fill="none" opacity="1.000000" stroke="#000000" stroke-linecap="round" stroke-linejoin="round" stroke-width="4.000000"
	d="
M270.000000,185.000015 
	C283.000000,173.000015 295.955292,160.951111 309.010742,149.011765 
	C327.468353,132.132080 346.200592,115.546432 364.410614,98.405029 
	C372.807281,90.501068 382.434143,83.700127 388.950317,73.966728 
	C397.832916,60.698521 391.323364,50.243591 380.432892,45.659420 
	C374.982788,43.365276 369.124786,45.031063 364.024994,48.042347 
	C360.754486,49.973492 357.571014,52.070404 354.953430,54.957783 
	C353.504578,56.555954 352.269012,58.803707 349.500000,58.500000 
"/>
<path fill="none" opacity="1.000000" stroke="#000000" stroke-linecap="round" stroke-linejoin="round" stroke-width="4.000000"
	d="
M347.500000,56.500000 
	C347.156616,54.159119 349.218903,53.655045 350.482758,52.481415 
	C355.905029,47.446201 360.744751,41.829453 362.393311,34.476078 
	C364.026886,27.189560 360.857758,21.376677 354.994415,17.007475 
	C349.405090,12.842437 343.250916,12.167907 337.027435,15.059038 
	C328.765137,18.897280 322.530640,25.449692 316.547821,32.043388 
	C287.294556,64.283546 259.198761,97.578117 228.509796,128.509720 
	C226.268356,130.768875 223.990036,133.033249 222.080643,135.560928 
	C221.230789,136.685989 220.411423,136.361908 219.500000,136.500000 
"/>
<path fill="none" opacity="1.000000" stroke="#000000" stroke-linecap="round" stroke-linejoin="round" stroke-width="4.000000"
	d="
M241.000000,155.500000 
	C275.931244,122.427208 310.862488,89.354416 345.580811,56.483212 
	C348.067749,56.448727 349.077820,57.631432 349.647156,59.832565 
	C317.296112,95.418251 284.876678,131.136185 251.000000,165.500000 
"/>
<path fill="none" opacity="1.000000" stroke="#000000" stroke-linecap="round" stroke-linejoin="round" stroke-width="4.000000"
	d="
M66.500000,15.000000 
	C57.841061,16.659922 49.336399,18.837246 42.016380,24.023123 
	C29.110760,33.166130 23.497206,46.536095 21.039740,61.506523 
	C18.425264,77.433395 24.812241,90.513382 35.059338,101.946823 
	C43.488293,111.351608 54.055256,118.356880 64.047012,125.938042 
	C77.269035,135.970123 89.719742,146.853195 102.056610,157.936996 
	C132.244995,185.059113 161.045609,213.608612 189.430115,242.568497 
	C214.265045,267.906891 238.212585,294.116669 263.119324,319.382385 
	C275.879669,332.326660 288.275177,345.578308 300.437256,359.056610 
	C305.538025,364.709442 310.713623,370.045563 316.920197,374.608521 
	C334.983643,387.888458 358.107147,385.714508 373.908081,373.382233 
	C389.649078,361.096802 394.975616,343.746063 393.270996,324.520294 
	C392.432770,315.065979 387.410675,306.764130 381.034729,299.469635 
	C372.533691,289.743988 362.261963,282.107849 351.961121,274.553009 
	C335.026520,262.132812 320.010071,247.548294 304.469757,233.533524 
	C273.281342,205.406845 244.114609,175.219269 214.580292,145.420425 
	C189.855927,120.474655 165.573273,95.075996 141.611176,69.396255 
	C129.864578,56.807652 118.439583,43.867268 106.768730,31.213299 
	C96.467056,20.043854 82.853630,14.032587 67.000000,15.000000 
"/>
</svg>